<mxfile host="app.diagrams.net" agent="Mozilla/5.0 (Windows NT 10.0; Win64; x64) AppleWebKit/537.36 (KHTML, like Gecko) Chrome/135.0.0.0 Safari/537.36 Edg/135.0.0.0" version="26.2.14">
  <diagram name="Page-1" id="JkUQUYZ5bTBngFNkyTMl">
    <mxGraphModel dx="1426" dy="840" grid="1" gridSize="10" guides="1" tooltips="1" connect="1" arrows="1" fold="1" page="1" pageScale="1" pageWidth="827" pageHeight="1169" math="0" shadow="0">
      <root>
        <mxCell id="0" />
        <mxCell id="1" parent="0" />
        <mxCell id="4yoZ3IH44hlJ8WYbjBaj-51" value="" style="rounded=0;whiteSpace=wrap;html=1;fillColor=none;dashed=1;strokeColor=light-dark(#4F4F4F,#3A3A3A);dashPattern=12 12;" vertex="1" parent="1">
          <mxGeometry x="50" y="70" width="1310" height="560" as="geometry" />
        </mxCell>
        <mxCell id="4yoZ3IH44hlJ8WYbjBaj-151" value="" style="rounded=0;whiteSpace=wrap;html=1;fillColor=none;strokeColor=#4F4F4F;" vertex="1" parent="1">
          <mxGeometry x="957.5" y="164" width="280" height="450" as="geometry" />
        </mxCell>
        <mxCell id="4yoZ3IH44hlJ8WYbjBaj-129" value="" style="rounded=1;whiteSpace=wrap;html=1;fillColor=none;gradientColor=default;strokeColor=#4F4F4F;" vertex="1" parent="1">
          <mxGeometry x="482.25" y="164" width="414.5" height="140" as="geometry" />
        </mxCell>
        <mxCell id="4yoZ3IH44hlJ8WYbjBaj-113" value="" style="rounded=0;whiteSpace=wrap;html=1;fillColor=none;strokeColor=#4F4F4F;" vertex="1" parent="1">
          <mxGeometry x="67.5" y="165" width="345" height="445" as="geometry" />
        </mxCell>
        <mxCell id="4yoZ3IH44hlJ8WYbjBaj-74" value="General Language Understading" style="text;html=1;align=center;verticalAlign=middle;whiteSpace=wrap;rounded=0;fontStyle=1;fontColor=#292929;fontSize=16;" vertex="1" parent="1">
          <mxGeometry x="85" y="414" width="310" height="30" as="geometry" />
        </mxCell>
        <mxCell id="4yoZ3IH44hlJ8WYbjBaj-111" value="" style="group" vertex="1" connectable="0" parent="1">
          <mxGeometry x="80" y="450" width="328.5" height="145" as="geometry" />
        </mxCell>
        <mxCell id="4yoZ3IH44hlJ8WYbjBaj-76" value="" style="shape=image;verticalLabelPosition=bottom;labelBackgroundColor=default;verticalAlign=top;aspect=fixed;imageAspect=0;editableCssRules=.*;image=data:image/svg+xml,PHN2ZyB4bWxuczp4bGluaz0iaHR0cDovL3d3dy53My5vcmcvMTk5OS94bGluayIgeG1sbnM9Imh0dHA6Ly93d3cudzMub3JnLzIwMDAvc3ZnIiBoZWlnaHQ9IjEwOC45OTk5OTE0MTY5MzExNSIgd2lkdGg9IjEyNi4wOTk5OTE3OTg0MDA4OCIgdmVyc2lvbj0iMS4xIiB2aWV3Qm94PSIxNzQuMDc5OTg2NTcyMjY1NjIgMTk4LjY1NTk3NTM0MTc5Njg4IDY0NS42MzE5NTgwMDc4MTI1IDU1OC4wNzk5NTYwNTQ2ODc1IiBjbGFzcz0iaWNvbiI+PHBhdGggZmlsbD0iIzM0MzM5OSIgZD0iTTczMi4xNiAxOTguNjU2Yy00OC4xMjggMC04Ny4wNCAzOC45MTItODcuMDQgODcuMDQgMCAyMC45OTIgNy42OCA0MC40NDggMTkuOTY4IDU1LjI5NmwtMTM4Ljc1MiAxNzIuMDMyYy05LjIxNi0zLjU4NC0xOC45NDQtNS42MzItMjkuNjk2LTUuNjMyLTkuMjE2IDAtMTcuOTIgMS41MzYtMjYuMTEyIDQuNjA4TDMyOS4yMTYgMzM5Ljk2OGMxMS43NzYtMTQuODQ4IDE4Ljk0NC0zMy43OTIgMTguOTQ0LTU0LjI3MiAwLTQ4LjEyOC0zOC45MTItODcuMDQtODcuMDQtODcuMDRzLTg3LjA0IDM4LjkxMi04Ny4wNCA4Ny4wNCAzOC45MTIgODcuMDQgODcuMDQgODcuMDRjMTQuMzM2IDAgMjguMTYtMy41ODQgNDAuNDQ4LTkuNzI4bDEzOC4yNCAxNjguNDQ4Yy0xNC4zMzYgMTQuMzM2LTIzLjU1MiAzNC44MTYtMjMuNTUyIDU2LjgzMiAwIDQ0LjU0NCAzNS44NCA4MC4zODQgODAuMzg0IDgwLjM4NHM4MC4zODQtMzUuODQgODAuMzg0LTgwLjM4NGMwLTIwLjk5Mi04LjE5Mi0zOS45MzYtMjAuOTkyLTU0LjI3Mkw2OTMuMjQ4IDM2My41MmMxMS43NzYgNi4xNDQgMjUuMDg4IDkuMjE2IDM4LjkxMiA5LjIxNiA0OC4xMjggMCA4Ny4wNC0zOC45MTIgODcuMDQtODcuMDRzLTM4LjkxMi04Ny4wNC04Ny4wNC04Ny4wNHogbS00NzEuMDQgMTMzLjEyYy0yNS42IDAtNDYuMDgtMjAuNDgtNDYuMDgtNDYuMDhzMjAuNDgtNDYuMDggNDYuMDgtNDYuMDggNDYuMDggMjAuNDggNDYuMDggNDYuMDgtMjAuNDggNDYuMDgtNDYuMDggNDYuMDh6IG0yMzUuNTIgMjk5LjAwOGMtMjMuNTUyIDAtNDIuNDk2LTE4Ljk0NC00Mi40OTYtNDIuNDk2czE4Ljk0NC00Mi40OTYgNDIuNDk2LTQyLjQ5NiA0Mi40OTYgMTguOTQ0IDQyLjQ5NiA0Mi40OTYtMTguOTQ0IDQyLjQ5Ni00Mi40OTYgNDIuNDk2eiBtMjM1LjUyLTI5OS4wMDhjLTI1LjYgMC00Ni4wOC0yMC40OC00Ni4wOC00Ni4wOHMyMC40OC00Ni4wOCA0Ni4wOC00Ni4wOCA0Ni4wOCAyMC40OCA0Ni4wOCA0Ni4wOC0yMC40OCA0Ni4wOC00Ni4wOCA0Ni4wOHoiLz48cGF0aCBmaWxsPSIjRjU5RDBEIiBkPSJNNzMyLjE2IDU4Mi42NTZjLTMuNTg0IDAtNy4xNjggMC41MTItMTAuNzUyIDAuNTEybC0xOTYuNjA4LTIzOS4xMDRjLTYuMTQ0LTcuNjgtMTUuMzYtMTEuNzc2LTI1LjA4OC0xMS43NzZoLTAuNTEyYy05LjcyOCAwLTE4Ljk0NCA0LjYwOC0yNS4wODggMTIuMjg4bC0xOTEuNDg4IDI0MC42NGMtNi42NTYtMS41MzYtMTMuODI0LTIuNTYtMjAuOTkyLTIuNTYtNDguMTI4IDAtODcuMDQgMzguOTEyLTg3LjA0IDg3LjA0czM4LjkxMiA4Ny4wNCA4Ny4wNCA4Ny4wNCA4Ny4wNC0zOC45MTIgODcuMDQtODcuMDRjMC0yNy42NDgtMTIuOC01Mi4yMjQtMzIuNzY4LTY4LjA5NmwxODQuMzItMjMxLjQyNCAxODUuODU2IDIyNS43OTJjLTI0LjA2NCAxNS4zNi00MC40NDggNDIuNDk2LTQwLjQ0OCA3My4yMTYgMCA0OC4xMjggMzguOTEyIDg3LjA0IDg3LjA0IDg3LjA0czg3LjA0LTM4LjkxMiA4Ny4wNC04Ny4wNC0zOS40MjQtODYuNTI4LTg3LjU1Mi04Ni41Mjh6IG0tNDcxLjA0IDEzMy4xMmMtMjUuNiAwLTQ2LjA4LTIwLjQ4LTQ2LjA4LTQ2LjA4czIwLjQ4LTQ2LjA4IDQ2LjA4LTQ2LjA4IDQ2LjA4IDIwLjQ4IDQ2LjA4IDQ2LjA4LTIwLjQ4IDQ2LjA4LTQ2LjA4IDQ2LjA4eiBtNDcxLjA0IDBjLTI1LjYgMC00Ni4wOC0yMC40OC00Ni4wOC00Ni4wOHMyMC40OC00Ni4wOCA0Ni4wOC00Ni4wOCA0Ni4wOCAyMC40OCA0Ni4wOCA0Ni4wOC0yMC40OCA0Ni4wOC00Ni4wOCA0Ni4wOHoiLz48L3N2Zz4=;" vertex="1" parent="4yoZ3IH44hlJ8WYbjBaj-111">
          <mxGeometry x="29" y="20" width="56.64" height="49" as="geometry" />
        </mxCell>
        <mxCell id="4yoZ3IH44hlJ8WYbjBaj-78" value="" style="shape=image;verticalLabelPosition=bottom;labelBackgroundColor=default;verticalAlign=top;aspect=fixed;imageAspect=0;editableCssRules=.*;image=data:image/svg+xml,PHN2ZyB4bWxuczp4bGluaz0iaHR0cDovL3d3dy53My5vcmcvMTk5OS94bGluayIgeG1sbnM9Imh0dHA6Ly93d3cudzMub3JnLzIwMDAvc3ZnIiBoZWlnaHQ9IjIwMC4wMDAwMjM4NDE4NTc5IiB3aWR0aD0iMjAwIiB2ZXJzaW9uPSIxLjEiIHZpZXdCb3g9IjAuMDczMTM1Mzc1OTc2NTYyNSAtMC4wNzMxNjU4OTM1NTQ2ODc1IDEwMjQgMTAyNC4wMDAxMjIwNzAzMTI1IiBjbGFzcz0iaWNvbiI+PHBhdGggZmlsbD0iIzcwNzA3MCIgZD0iTTgwNC42NDQ1NzEgMTAyMy45MjY4NTdoLTU4NS4xNDI4NTdhMjE5LjQyODU3MSAyMTkuNDI4NTcxIDAgMCAxLTIxOS40Mjg1NzEtMjE5LjQyODU3MXYtNTg1LjE0Mjg1N2EyMTkuNDI4NTcxIDIxOS40Mjg1NzEgMCAwIDEgMjE5LjQyODU3MS0yMTkuNDI4NTcyaDU4NS4xNDI4NTdhMjE5LjQyODU3MSAyMTkuNDI4NTcxIDAgMCAxIDIxOS40Mjg1NzIgMjE5LjQyODU3MnY1ODUuMTQyODU3YTIxOS40Mjg1NzEgMjE5LjQyODU3MSAwIDAgMS0yMTkuNDI4NTcyIDIxOS40Mjg1NzF6TTU5MC45OTQyODYgMjY0LjMzODI4NmE0OS41MTc3MTQgNDkuNTE3NzE0IDAgMCAwLTUxLjIgNTIuMzcwMjg1djM5OC44NDhhNTEuMiA1MS4yIDAgMCAwIDUzLjk3OTQyOCA1Mi4zNzAyODZoMTE5LjIyMjg1N2MxNTAuODIwNTcxLTcuMzE0Mjg2IDIzMC44Mzg4NTctOTAuMTEyIDIzOC4wOC0yNDYuMTI1NzE0LTUuNDEyNTcxLTE2NS4zMDI4NTctODcuNzcxNDI5LTI1MS45MDQtMjQzLjYzODg1Ny0yNTcuNDYyODU3ek0xOTUuMTQ1MTQzIDY2OC43NDUxNDNoMTkyLjQzODg1N2wxOS4yMzY1NzEgNjYuNDg2ODU3YTUwLjI0OTE0MyA1MC4yNDkxNDMgMCAwIDAgNTEuMiAzMi42OTQ4NTdjMzAuNzIgMCA0Ni41OTItMTMuNDU4Mjg2IDQ4LjQyMDU3Mi00MS4xNzk0MjhhOTcuNzkyIDk3Ljc5MiAwIDAgMC01LjQxMjU3Mi0yOC4wODY4NThsLTEzNS42MDY4NTctMzg0LjczMTQyOEE4MC40NTcxNDMgODAuNDU3MTQzIDAgMCAwIDI4OS40MjYyODYgMjU2YTgxLjcwMDU3MSA4MS43MDA1NzEgMCAwIDAtNzMuMTQyODU3IDU3LjkyOTE0M2wtMTQwLjA2ODU3MiAzODQuNzMxNDI4djUuNzA1MTQzYTg2Ljg5MzcxNCA4Ni44OTM3MTQgMCAwIDAtMi43Nzk0MjggMTkuNTI5MTQzIDQyLjM0OTcxNCA0Mi4zNDk3MTQgMCAwIDAgNDguNjQgNDMuODg1NzE0IDUwLjY4OCA1MC42ODggMCAwIDAgNTEuMi0zMi42OTQ4NTdsMjEuOTQyODU3LTY2LjQ4Njg1N3ogbTUxNy43MDUxNDMgMi43Nzk0MjhoLTcwLjU4Mjg1N3YtMzEwLjg1NzE0Mmg2Mi4zOTA4NTdjODkuODkyNTcxIDEuOTc0ODU3IDEzNi40MTE0MjkgNTUuMjIyODU3IDEzOC4zMTMxNDMgMTU4LjI4MTE0Mi0zLjczMDI4NiA5Ny40OTk0MjktNDcuNTQyODU3IDE0OC44NDU3MTQtMTMwLjE5NDI4NiAxNTIuNTc2eiBtLTM1OC40LTEwMC4xMzI1NzFIMjI0LjQwMjI4Nmw2NS4wOTcxNDMtMjA0LjggNjUuMDI0IDIwNC44eiIvPjwvc3ZnPg==;" vertex="1" parent="4yoZ3IH44hlJ8WYbjBaj-111">
          <mxGeometry x="129" y="14.5" width="54" height="54" as="geometry" />
        </mxCell>
        <mxCell id="4yoZ3IH44hlJ8WYbjBaj-79" value="" style="shape=image;verticalLabelPosition=bottom;labelBackgroundColor=default;verticalAlign=top;aspect=fixed;imageAspect=0;editableCssRules=.*;image=data:image/svg+xml,PHN2ZyB4bWxuczp4bGluaz0iaHR0cDovL3d3dy53My5vcmcvMTk5OS94bGluayIgeG1sbnM9Imh0dHA6Ly93d3cudzMub3JnLzIwMDAvc3ZnIiBoZWlnaHQ9IjE3Mi41MjYzMzU3MTYyNDc1NiIgd2lkdGg9IjE3NS44ODg5MTk4MzAzMjIyNyIgdmVyc2lvbj0iMS4xIiB2aWV3Qm94PSI2MS43MDM3MDQ4MzM5ODQzNzUgNzUuMDk4MzczNDEzMDg1OTQgOTAwLjU1MTI2OTUzMTI1IDg4My4zMzQ4Mzg4NjcxODc1IiBjbGFzcz0iaWNvbiI+PHBhdGggZmlsbD0iI0ZGODYzNCIgZD0iTTUxMiA4NDIuOTcxNDI5bC0xOTYuNDk4Mjg2IDEwNi42MDU3MTRBNzMuMTQyODU3IDczLjE0Mjg1NyAwIDAgMSAyMDguNDU3MTQzIDg3My4zMjU3MTRsMzguMTA3NDI4LTIyOS40NDkxNDMtMTYzLjU4NC0xNjQuNjA4QTczLjE0Mjg1NyA3My4xNDI4NTcgMCAwIDEgMTIzLjk3NzE0MyAzNTUuMzY0NTcxbDIyMy45MjY4NTctMzMuNjA5MTQyIDk4LjA4NDU3MS0yMDUuMDkyNTcyYTczLjE0Mjg1NyA3My4xNDI4NTcgMCAwIDEgMTMxLjk0OTcxNSAwbDk4LjA4NDU3MSAyMDUuMDkyNTcyIDIyMy45MjY4NTcgMzMuNjA5MTQyYTczLjE0Mjg1NyA3My4xNDI4NTcgMCAwIDEgNDEuMDMzMTQzIDEyMy45MDRsLTE2My41ODQgMTY0LjU3MTQyOUw4MTUuNTQyODU3IDg3My4zMjU3MTRhNzMuMTQyODU3IDczLjE0Mjg1NyAwIDAgMS0xMDcuMDQ0NTcxIDc2LjI1MTQyOUw1MTIgODQyLjk3MTQyOXoiLz48L3N2Zz4=;" vertex="1" parent="4yoZ3IH44hlJ8WYbjBaj-111">
          <mxGeometry x="229" y="16.970000000000027" width="54" height="53.09" as="geometry" />
        </mxCell>
        <mxCell id="4yoZ3IH44hlJ8WYbjBaj-80" value="Relevance" style="text;html=1;align=center;verticalAlign=middle;whiteSpace=wrap;rounded=0;fontStyle=1;fontColor=#292929;fontSize=16;" vertex="1" parent="4yoZ3IH44hlJ8WYbjBaj-111">
          <mxGeometry x="7.319999999999993" y="80" width="100" height="30" as="geometry" />
        </mxCell>
        <mxCell id="4yoZ3IH44hlJ8WYbjBaj-81" value="Ads" style="text;html=1;align=center;verticalAlign=middle;whiteSpace=wrap;rounded=0;fontStyle=1;fontColor=#292929;fontSize=16;" vertex="1" parent="4yoZ3IH44hlJ8WYbjBaj-111">
          <mxGeometry x="106" y="80" width="100" height="30" as="geometry" />
        </mxCell>
        <mxCell id="4yoZ3IH44hlJ8WYbjBaj-82" value="QS" style="text;html=1;align=center;verticalAlign=middle;whiteSpace=wrap;rounded=0;fontStyle=1;fontColor=#292929;fontSize=16;" vertex="1" parent="4yoZ3IH44hlJ8WYbjBaj-111">
          <mxGeometry x="206" y="80" width="100" height="30" as="geometry" />
        </mxCell>
        <mxCell id="4yoZ3IH44hlJ8WYbjBaj-110" value="" style="rounded=0;whiteSpace=wrap;html=1;fillColor=none;dashed=1;" vertex="1" parent="4yoZ3IH44hlJ8WYbjBaj-111">
          <mxGeometry width="312" height="120" as="geometry" />
        </mxCell>
        <mxCell id="4yoZ3IH44hlJ8WYbjBaj-72" value="&lt;span style=&quot;color: rgba(0, 0, 0, 0); font-family: monospace; font-size: 0px; text-align: start; text-wrap-mode: nowrap;&quot;&gt;%3CmxGraphModel%3E%3Croot%3E%3CmxCell%20id%3D%220%22%2F%3E%3CmxCell%20id%3D%221%22%20parent%3D%220%22%2F%3E%3CmxCell%20id%3D%222%22%20value%3D%22%22%20style%3D%22group%22%20vertex%3D%221%22%20connectable%3D%220%22%20parent%3D%221%22%3E%3CmxGeometry%20x%3D%2250%22%20y%3D%22600%22%20width%3D%22471%22%20height%3D%22140%22%20as%3D%22geometry%22%2F%3E%3C%2FmxCell%3E%3CmxCell%20id%3D%223%22%20value%3D%22%22%20style%3D%22rounded%3D0%3BwhiteSpace%3Dwrap%3Bhtml%3D1%3BfillColor%3Dnone%3Bdashed%3D1%3B%22%20vertex%3D%221%22%20parent%3D%222%22%3E%3CmxGeometry%20width%3D%22471%22%20height%3D%22140%22%20as%3D%22geometry%22%2F%3E%3C%2FmxCell%3E%3CmxCell%20id%3D%224%22%20value%3D%22%22%20style%3D%22group%22%20vertex%3D%221%22%20connectable%3D%220%22%20parent%3D%222%22%3E%3CmxGeometry%20x%3D%2226.5%22%20y%3D%2222.5%22%20width%3D%22418%22%20height%3D%2295%22%20as%3D%22geometry%22%2F%3E%3C%2FmxCell%3E%3CmxCell%20id%3D%225%22%20value%3D%22%22%20style%3D%22shape%3Dimage%3BverticalLabelPosition%3Dbottom%3BlabelBackgroundColor%3Ddefault%3BverticalAlign%3Dtop%3Baspect%3Dfixed%3BimageAspect%3D0%3BeditableCssRules%3D.*%3Bimage%3Ddata%3Aimage%2Fsvg%2Bxml%2CPHN2ZyB4bWxuczp4bGluaz0iaHR0cDovL3d3dy53My5vcmcvMTk5OS94bGluayIgeG1sbnM9Imh0dHA6Ly93d3cudzMub3JnLzIwMDAvc3ZnIiBoZWlnaHQ9IjEwMC4wMTIwNjM5ODAxMDI1NCIgd2lkdGg9IjEwMC4wMTg5MzA0MzUxODA2NiIgZGF0YS1kYXJrcmVhZGVyLWlubGluZS1maWxsPSIiIGlkPSJteF9uXzE3NDU3NjMzMjE3MTUiIHZlcnNpb249IjEuMSIgdmlld0JveD0iMjU2LjA1NDQ3Mzg3Njk1MzEgMjQ4Ljk5MDI2NDg5MjU3ODEyIDUxMi4wOTY5MjM4MjgxMjUgNTEyLjA2MTc2NzU3ODEyNSIgY2xhc3M9Imljb24iPjxwYXRoIHN0eWxlPSItLWRhcmtyZWFkZXItaW5saW5lLWZpbGw6IHZhcigtLWRhcmtyZWFkZXItYmFja2dyb3VuZC03ZGM1ZWIsICMxMzU2N2EpOyIgZGF0YS1kYXJrcmVhZGVyLWlubGluZS1maWxsPSIiIGZpbGw9IiM3ZGM1ZWIiIGNsYXNzPSIiIGRhdGEtc3BtLWFuY2hvci1pZD0iYTMxM3guc2VhcmNoX2luZGV4LjAuaTI2LjQwZTczYTgxNW1aREZHIiBkPSJNNDg0LjQgNjIxbC05NC44LTEwMC4xYy0xMC4zLTEwLjgtMjcuNi0xMC44LTM3LjkgMGwtODAuNCA4NC45LTguMSA4LjVjLTcuNyA4LjEtOS4zIDIwLjEtNC4yIDMwIDEuNiAzLjEgMy4yIDYuMiA0LjkgOS4yIDIzLjEgNDEuMyA1NS43IDc1LjggOTQuOCAxMDAuMSAyLjEgMS4zIDQuMiAyLjYgNi40IDMuOSAxMC41IDYuMSAyMy44IDQuMiAzMi4yLTQuNmw2LjYtNyA4MC40LTg0LjkgMi0yLjFjOS41LTEwIDkuNS0yNS43IDAtMzUuN2wtMS45LTIuMnogbS0xMjUuMyA5OS41Yy0yNS44LTE4LjYtNDgtNDIuMy02NS4zLTY5LjctNi40LTEwLjEtNS4yLTIzLjMgMy0zMmw1NC45LTU3LjljMTAuMy0xMC44IDI3LjYtMTAuOCAzNy45IDBsNTkgNjIuM2M5LjUgMTAgOS41IDI1LjcgMCAzNS43bC01NS4zIDU4LjNjLTguOSA5LjQtMjMuNiAxMC45LTM0LjIgMy4zek01NDEuOSAzOTAuMmw5NCA5OS4yYzEwLjIgMTAuNyAyNy4zIDEwLjcgMzcuNSAwbDc5LjctODQuMSA4LTguNWM3LjYtOCA5LjItMTkuOSA0LjEtMjkuNy0xLjYtMy4xLTMuMi02LjEtNC45LTkuMS0yMi45LTQwLjktNTUuMi03NS05NC05OS4yLTIuMS0xLjMtNC4yLTIuNi02LjMtMy44LTEwLjQtNi4xLTIzLjYtNC4xLTMxLjkgNC42bC02LjYgNi45LTc5LjcgODQuMS0yIDIuMWMtOS40IDkuOS05LjQgMjUuNCAwIDM1LjRsMi4xIDIuMXogbTEyNC4yLTk4LjZjMjUuNSAxOC40IDQ3LjUgNDEuOSA2NC43IDY5IDYuMyAxMCA1LjIgMjMuMS0zIDMxLjdsLTU0LjQgNTcuNGMtMTAuMiAxMC43LTI3LjMgMTAuNy0zNy41IDBMNTc3LjQgMzg4Yy05LjQtOS45LTkuNC0yNS40IDAtMzUuNGw1NC43LTU3LjhjOS05LjMgMjMuNS0xMC43IDM0LTMuMnpNNDI5LjIgMjUzLjZjLTQuNi00LjktMTIuMS02LjEtMTcuOC0yLjYtNSAzLTkuOSA2LjItMTQuOCA5LjYtMzkuMiAyNy41LTcxLjIgNjUuMy05Mi45IDEwOS43LTQuMyA4LjctOCAxNy43LTExLjQgMjYuOWwtOS45LTE0Yy00LjgtNi43LTE0LjMtOC4xLTIwLjctMy02IDQuOC03LjIgMTMuNC0yLjggMTkuNmwzNC4xIDQ4YzUuOCA4LjEgMTcuOCA4LjEgMjMuNiAwbDM0LjEtNDhjNC40LTYuMiAzLjItMTQuOS0yLjgtMTkuNmwtMTEuOS05LjQtMS45IDIuNmMyMC4zLTM3LjEgNDguNy02OC41IDgyLjktOTEuNCAzLjItMi4xIDYuNC00LjIgOS43LTYuMiA3LjgtNC43IDkuMS0xNS40IDIuOS0yMmwtMC40LTAuMnogbS0xMjQuNSAxNjFsLTUuMS03LjIgNS45IDYuMi0wLjggMXpNNzY1LjQgNjEyLjZsLTM0LjEtNDhjLTUuOC04LjEtMTcuOC04LjEtMjMuNiAwbC0zNC4xIDQ4Yy00LjQgNi4yLTMuMiAxNC45IDIuOCAxOS42IDYuNSA1LjEgMTYgMy44IDIwLjctM2wyMi4zLTMxLjQgNC4xIDUuOC0wLjctMC44Yy00LjIgOS4yLTguOSAxOC4xLTE0IDI2LjctMjUuMyA0Mi4xLTYxLjUgNzYtMTA0LjUgOTcuNS0zIDEuNS02IDMtOS4xIDQuMy05IDQuMS0xMS4yIDE1LjctNC40IDIyLjlsMC4yIDAuM2M0LjIgNC40IDEwLjggNS45IDE2LjQgMy40IDYtMi43IDEyLTUuNiAxNy44LTguOCA0Mi0yMyA3Ny44LTU2LjggMTAzLjktOTguMSA0LjUtNy4xIDguNS0xNC42IDEyLjQtMjIuMWw5LjEgMTIuOCAxMS45LTkuNGM2LjEtNC44IDcuNC0xMy40IDIuOS0xOS43eiIvPjwvc3ZnPg%3D%3D%3B%22%20vertex%3D%221%22%20parent%3D%224%22%3E%3CmxGeometry%20x%3D%2299%22%20y%3D%224%22%20width%3D%2250%22%20height%3D%2250%22%20as%3D%22geometry%22%2F%3E%3C%2FmxCell%3E%3CmxCell%20id%3D%226%22%20value%3D%22%22%20style%3D%22shape%3Dimage%3BverticalLabelPosition%3Dbottom%3BlabelBackgroundColor%3Ddefault%3BverticalAlign%3Dtop%3Baspect%3Dfixed%3BimageAspect%3D0%3BeditableCssRules%3D.*%3Bimage%3Ddata%3Aimage%2Fsvg%2Bxml%2CPHN2ZyB4bWxuczp4bGluaz0iaHR0cDovL3d3dy53My5vcmcvMTk5OS94bGluayIgeG1sbnM9Imh0dHA6Ly93d3cudzMub3JnLzIwMDAvc3ZnIiBoZWlnaHQ9IjE4My4zMzMzMzczMDY5NzYzMiIgd2lkdGg9IjE4My4zMzMzMjUzODYwNDczNiIgZGF0YS1kYXJrcmVhZGVyLWlubGluZS1maWxsPSIiIHZlcnNpb249IjEuMSIgdmlld0JveD0iNDIuNjY2NjY3OTM4MjMyNDIgNDIuNjY2NjY3OTM4MjMyNDIgOTM4LjY2NjYyNTk3NjU2MjUgOTM4LjY2NjY4NzAxMTcxODgiIGNsYXNzPSJpY29uIj48cGF0aCBzdHlsZT0iLS1kYXJrcmVhZGVyLWlubGluZS1maWxsOiB2YXIoLS1kYXJrcmVhZGVyLWJhY2tncm91bmQtNGQ0ZDRkLCAjM2EzZjQxKTsiIGRhdGEtZGFya3JlYWRlci1pbmxpbmUtZmlsbD0iIiBmaWxsPSIjNEQ0RDREIiBkPSJNOTYwIDQyLjY2NjY2N0gyMzQuNjY2NjY3Yy0xMi44IDAtMjEuMzMzMzMzIDguNTMzMzMzLTIxLjMzMzMzNCAyMS4zMzMzMzN2NDI2LjY2NjY2N0g2NGMtMTIuOCAwLTIxLjMzMzMzMyA4LjUzMzMzMy0yMS4zMzMzMzMgMjEuMzMzMzMzdjQ0OGMwIDguNTMzMzMzIDYuNCAxNy4wNjY2NjcgMTQuOTMzMzMzIDE5LjIgMi4xMzMzMzMgMi4xMzMzMzMgNC4yNjY2NjcgMi4xMzMzMzMgNi40IDIuMTMzMzMzIDYuNCAwIDEyLjgtMi4xMzMzMzMgMTcuMDY2NjY3LTguNTMzMzMzTDE2MCA4NzQuNjY2NjY3SDUzMy4zMzMzMzNjMTIuOCAwIDIxLjMzMzMzMy04LjUzMzMzMyAyMS4zMzMzMzQtMjEuMzMzMzM0VjY0MGgyODhsMTAwLjI2NjY2NiAxMTkuNDY2NjY3YzQuMjY2NjY3IDQuMjY2NjY3IDEwLjY2NjY2NyA4LjUzMzMzMyAxNy4wNjY2NjcgOC41MzMzMzMgMi4xMzMzMzMgMCA0LjI2NjY2NyAwIDYuNC0yLjEzMzMzMyA4LjUzMzMzMy0yLjEzMzMzMyAxNC45MzMzMzMtMTAuNjY2NjY3IDE0LjkzMzMzMy0xOS4yVjY0YzAtMTIuOC04LjUzMzMzMy0yMS4zMzMzMzMtMjEuMzMzMzMzLTIxLjMzMzMzM3pNNTEyIDgzMkgxNDkuMzMzMzMzYy02LjQgMC0xMi44IDIuMTMzMzMzLTE3LjA2NjY2NiA4LjUzMzMzM0w4NS4zMzMzMzMgOTAwLjI2NjY2N1Y1MzMuMzMzMzMzaDQyNi42NjY2Njd2Mjk4LjY2NjY2N3ogbTQyNi42NjY2NjctMTQ1LjA2NjY2N2wtNjguMjY2NjY3LTgzLjJjLTQuMjY2NjY3LTQuMjY2NjY3LTEwLjY2NjY2Ny02LjQtMTcuMDY2NjY3LTYuNEg1NTQuNjY2NjY3di04NS4zMzMzMzNjMC0xMi44LTguNTMzMzMzLTIxLjMzMzMzMy0yMS4zMzMzMzQtMjEuMzMzMzMzSDI1NlY4NS4zMzMzMzNoNjgyLjY2NjY2N3Y2MDEuNnpNMzIwIDU3NmgtNDIuNjY2NjY3djEyOGg0Mi42NjY2Njd2LTEyOHogbTAgMTcwLjY2NjY2N2gtNDIuNjY2NjY3djQyLjY2NjY2Nmg0Mi42NjY2Njd2LTQyLjY2NjY2NnogbTIxMy4zMzMzMzMtNTIwLjUzMzMzNGw2NC0zMiA2NCAzMnYzOC40bC03Mi41MzMzMzMgMzYuMjY2NjY3Yy04LjUzMzMzMyA0LjI2NjY2Ny0xMi44IDEwLjY2NjY2Ny0xMi44IDE5LjJ2NDIuNjY2NjY3aDQyLjY2NjY2N3YtMjkuODY2NjY3bDcyLjUzMzMzMy0zNi4yNjY2NjdjNi40LTQuMjY2NjY3IDEyLjgtMTAuNjY2NjY3IDEyLjgtMTkuMnYtNjRjMC04LjUzMzMzMy00LjI2NjY2Ny0xNC45MzMzMzMtMTIuOC0xOS4ybC04NS4zMzMzMzMtNDIuNjY2NjY2Yy02LjQtMi4xMzMzMzMtMTIuOC0yLjEzMzMzMy0xOS4yIDBsLTg1LjMzMzMzNCA0Mi42NjY2NjZjLTYuNCA0LjI2NjY2Ny0xMC42NjY2NjcgMTAuNjY2NjY3LTEwLjY2NjY2NiAxOS4ydjY0aDQyLjY2NjY2NnYtNTEuMnpNNTc2IDQ0OGg0Mi42NjY2Njd2LTQyLjY2NjY2N2gtNDIuNjY2NjY3djQyLjY2NjY2N3oiLz48L3N2Zz4%3D%3B%22%20vertex%3D%221%22%20parent%3D%224%22%3E%3CmxGeometry%20x%3D%22189%22%20y%3D%224%22%20width%3D%2250%22%20height%3D%2250%22%20as%3D%22geometry%22%2F%3E%3C%2FmxCell%3E%3CmxCell%20id%3D%227%22%20value%3D%22%22%20style%3D%22shape%3Dimage%3BverticalLabelPosition%3Dbottom%3BlabelBackgroundColor%3Ddefault%3BverticalAlign%3Dtop%3Baspect%3Dfixed%3BimageAspect%3D0%3BeditableCssRules%3D.*%3Bimage%3Ddata%3Aimage%2Fsvg%2Bxml%2CPHN2ZyB4bWxuczp4bGluaz0iaHR0cDovL3d3dy53My5vcmcvMTk5OS94bGluayIgeG1sbnM9Imh0dHA6Ly93d3cudzMub3JnLzIwMDAvc3ZnIiBoZWlnaHQ9IjEyOS4xNjY2NjI2OTMwMjM2OCIgd2lkdGg9IjE1MC4xMTEyNDYxMDkwMDg4IiBkYXRhLWRhcmtyZWFkZXItaW5saW5lLWZpbGw9IiIgdmVyc2lvbj0iMS4xIiB2aWV3Qm94PSIxMjcuOTk5OTkyMzcwNjA1NDcgMTc5LjIwMDAxMjIwNzAzMTI1IDc2OC41Njk1ODAwNzgxMjUgNjYxLjMzMzMxMjk4ODI4MTIiIGNsYXNzPSJpY29uIj48cGF0aCBmaWxsPSIjMWFhYmE4IiBkPSJNMTY2LjQgMjU2aDU4MC4yNjY2NjdjMjEuMzMzMzMzIDAgMzguNC0xNy4wNjY2NjcgMzguNC0zOC40cy0xNy4wNjY2NjctMzguNC0zOC40LTM4LjRIMTY2LjRjLTIxLjMzMzMzMyAwLTM4LjQgMTcuMDY2NjY3LTM4LjQgMzguNHMxNy4wNjY2NjcgMzguNCAzOC40IDM4LjR6IG0wIDE4Ny43MzMzMzNoMzk2LjhjMjEuMzMzMzMzIDAgMzguNC0xNy4wNjY2NjcgMzguNC0zOC40cy0xNy4wNjY2NjctMzguNC0zOC40LTM4LjRIMTY2LjRjLTIxLjMzMzMzMyAwLTM4LjQgMTcuMDY2NjY3LTM4LjQgMzguNHMxNy4wNjY2NjcgMzguNCAzOC40IDM4LjR6TTIxMy4zMzMzMzMgNTU4LjkzMzMzM0gxNjYuNGMtMjEuMzMzMzMzIDAtMzguNCAxNy4wNjY2NjctMzguNCAzOC40czE3LjA2NjY2NyAzOC40IDM4LjQgMzguNEgyMTMuMzMzMzMzYzIxLjMzMzMzMyAwIDM4LjQtMTcuMDY2NjY3IDM4LjQtMzguNHMtMTcuMDY2NjY3LTM4LjQtMzguNC0zOC40eiBtMjAwLjUzMzMzNCAwSDM0MS4zMzMzMzNjLTIxLjMzMzMzMyAwLTM4LjQgMTcuMDY2NjY3LTM4LjQgMzguNHMxNy4wNjY2NjcgMzguNCAzOC40IDM4LjRoNzIuNTMzMzM0YzIxLjMzMzMzMyAwIDM4LjQtMTcuMDY2NjY3IDM4LjQtMzguNHMtMTcuMDY2NjY3LTM4LjQtMzguNC0zOC40ek0xNzAuNjY2NjY3IDc0Ni42NjY2NjdjLTI1LjYgMC00Mi42NjY2NjcgMTcuMDY2NjY3LTQyLjY2NjY2NyAzOC40czE3LjA2NjY2NyAzOC40IDM4LjQgMzguNEgxNzAuNjY2NjY3YzIxLjMzMzMzMyAwIDM4LjQtMTcuMDY2NjY3IDM4LjQtMzguNHMtMTcuMDY2NjY3LTM4LjQtMzguNC0zOC40eiBtMTEwLjkzMzMzMyAwYy0yNS42IDAtNDIuNjY2NjY3IDE3LjA2NjY2Ny00Mi42NjY2NjcgMzguNHMxNy4wNjY2NjcgMzguNCAzOC40IDM4LjRoNC4yNjY2NjdjMjEuMzMzMzMzIDAgMzguNC0xNy4wNjY2NjcgMzguNC0zOC40cy0xNy4wNjY2NjctMzguNC0zOC40LTM4LjR6IG0xMTUuMiAwYy0yNS42IDAtNDIuNjY2NjY3IDE3LjA2NjY2Ny00Mi42NjY2NjcgMzguNHMxNy4wNjY2NjcgMzguNCAzOC40IDM4LjRoNC4yNjY2NjdjMjEuMzMzMzMzIDAgMzguNC0xNy4wNjY2NjcgMzguNC0zOC40cy0xNy4wNjY2NjctMzguNC0zOC40LTM4LjR6TTg3OC45MzMzMzMgNDI2LjY2NjY2N2wtNzIuNTMzMzMzLTUxLjJjLTE3LjA2NjY2Ny0xMi44LTQyLjY2NjY2Ny04LjUzMzMzMy01OS43MzMzMzMgOC41MzMzMzNsLTIyMS44NjY2NjcgMzExLjQ2NjY2N2MtNC4yNjY2NjcgOC41MzMzMzMtOC41MzMzMzMgMTIuOC04LjUzMzMzMyAyMS4zMzMzMzN2MTAyLjRjMCAxMi44IDEyLjggMjEuMzMzMzMzIDIxLjMzMzMzMyAyMS4zMzMzMzNoOC41MzMzMzNMNjQwIDgxMC42NjY2NjdjOC41MzMzMzMtNC4yNjY2NjcgMTIuOC04LjUzMzMzMyAxNy4wNjY2NjctMTIuOGwyMjEuODY2NjY2LTMxMS40NjY2NjdjMjUuNi0yMS4zMzMzMzMgMjEuMzMzMzMzLTQ2LjkzMzMzMyAwLTU5LjczMzMzM3ogbS0yNTYgMzI4LjUzMzMzM2wtNDIuNjY2NjY2IDEyLjh2LTQyLjY2NjY2N2wyMDQuOC0yODUuODY2NjY2IDQyLjY2NjY2NiAyOS44NjY2NjYtMjA0LjggMjg1Ljg2NjY2N3oiLz48L3N2Zz4%3D%3B%22%20vertex%3D%221%22%20parent%3D%224%22%3E%3CmxGeometry%20x%3D%22271%22%20y%3D%224%22%20width%3D%2260%22%20height%3D%2250%22%20as%3D%22geometry%22%2F%3E%3C%2FmxCell%3E%3CmxCell%20id%3D%228%22%20value%3D%22%22%20style%3D%22shape%3Dimage%3BverticalLabelPosition%3Dbottom%3BlabelBackgroundColor%3Ddefault%3BverticalAlign%3Dtop%3Baspect%3Dfixed%3BimageAspect%3D0%3BeditableCssRules%3D.*%3Bimage%3Ddata%3Aimage%2Fsvg%2Bxml%2CPHN2ZyB4bWxuczp4bGluaz0iaHR0cDovL3d3dy53My5vcmcvMTk5OS94bGluayIgeG1sbnM9Imh0dHA6Ly93d3cudzMub3JnLzIwMDAvc3ZnIiBoZWlnaHQ9IjIwMCIgd2lkdGg9IjE0Ny44MTc1NDAxNjg3NjIyIiB2ZXJzaW9uPSIxLjEiIHZpZXdCb3g9IjEzMy41ODcxMjc2ODU1NDY4OCAwIDc1Ni44MjU4MDU2NjQwNjI1IDEwMjQiIGNsYXNzPSJpY29uIj48cGF0aCBmaWxsPSIjNjk0OTREIiBkPSJNMTM5LjE4NTgyNyA1MTkuMjYxNTQ4YTQuNjI0NjczIDQuNjI0NjczIDAgMCAxLTIuNzU4NTc3LTAuOTczNjE1IDguMTEzNDYyIDguMTEzNDYyIDAgMCAxLTIuODM5NzEyLTYuMjQ3MzY2VjY2LjQ0OTI1MUMxMzMuNTg3NTM4IDI5Ljc3NjQwNCAxNTYuMzg2MzY2IDAgMTg0LjM3NzgwOCAwSDgzOS40NTg3MDVjMjcuOTkxNDQzIDAgNTAuNzkwMjcgMjkuNzc2NDA0IDUwLjc5MDI3MSA2Ni40NDkyNTF2Mjg1LjQzMTU4M2MwIDM2LjY3Mjg0Ny0yMi43OTg4MjcgNjYuNDQ5MjUxLTUwLjc5MDI3MSA2Ni40NDkyNTFIMjcyLjg5NTY3NUwxNDEuNzAxIDUxOC4yODc5MzNhNC42MjQ2NzMgNC42MjQ2NzMgMCAwIDEtMi41MTUxNzMgMC45NzM2MTV6TTE4NC4zNzc4MDggMTQuNjA0MjMxYy0yMS44MjUyMTIgMC0zOS42NzQ4MjggMjMuMjg1NjM1LTM5LjY3NDgyNyA1MS44NDUwMnY0MzIuODUzMTgxbDEyMy44OTI1Ni05NC41MjE4MjhhNC42MjQ2NzMgNC42MjQ2NzMgMCAwIDEgMi44Mzk3MTEtMC45NzM2MTZIODM5LjQ1ODcwNWMyMS44MjUyMTIgMCAzOS42NzQ4MjgtMjMuMjg1NjM1IDM5LjY3NDgyOC01MS44NDUwMlY2Ni40NDkyNTFDODc5LjIxNDY2OCAzNy44ODk4NjYgODYxLjQ0NjE4NyAxNC42MDQyMzEgODM5LjQ1ODcwNSAxNC42MDQyMzF6Ii8%2BPHBhdGggZmlsbD0iI0IwRTU1QyIgZD0iTTc1Ni40NTc5OTIgOTI1Ljk4OTM4M0gyODYuODUwODNjLTIwLjUyNzA1OCAwLTE4LjI1NTI4OS02Ljg5NjQ0Mi0xOC4yNTUyODktMjguNTU5Mzg1VjcwNy4wMDcwNTJhMzguNTM4OTQzIDM4LjUzODk0MyAwIDAgMSAzNy40MDMwNTgtMzkuNDMxNDI0SDg0Ny41NzIxNjdhMzguNTM4OTQzIDM4LjUzODk0MyAwIDAgMSAzNy40MDMwNTggMzkuNDMxNDI0djI5Ny4xOTYxMDF6Ii8%2BPHBhdGggZmlsbD0iIzY5NDk0RCIgZD0iTTc2NS4wNTgyNjIgMTQ1LjM5MzIzM0gyOTUuMDQ1NDI2YTYuNjUzMDM5IDYuNjUzMDM5IDAgMCAxLTUuNTk4Mjg5LTcuMzAyMTE1IDYuNjUzMDM5IDYuNjUzMDM5IDAgMCAxIDUuNTk4Mjg5LTcuMzAyMTE2aDQ3MC4wMTI4MzZhNi42NTMwMzkgNi42NTMwMzkgMCAwIDEgNS41OTgyODggNy4zMDIxMTYgNi42NTMwMzkgNi42NTMwMzkgMCAwIDEtNS41OTgyODggNy4zMDIxMTV6TTY3NS44MTAxODMgMjY2LjkzMjg5SDI5NS4wNDU0MjZhNy41NDU1MTkgNy41NDU1MTkgMCAwIDEgMC0xNC42MDQyMzFoMzgwLjc2NDc1N2E3LjU0NTUxOSA3LjU0NTUxOSAwIDAgMSAwIDE0LjYwNDIzMXpNNzY1LjA1ODI2MiA2OTAuMDQ5OTE3SDI5NS4wNDU0MjZhNy41NDU1MTkgNy41NDU1MTkgMCAwIDEgMC0xNC42MDQyMzFoNDcwLjAxMjgzNmE3LjU0NTUxOSA3LjU0NTUxOSAwIDAgMSAwIDE0LjYwNDIzMXpNNjc1LjgxMDE4MyA4MTEuMzQ2MTY5SDI5NS4wNDU0MjZhNy41NDU1MTkgNy41NDU1MTkgMCAwIDEgMC0xNC42MDQyMzFoMzgwLjc2NDc1N2E3LjU0NTUxOSA3LjU0NTUxOSAwIDAgMSAwIDE0LjYwNDIzMXoiLz48cGF0aCBmaWxsPSIjNjk0OTREIiBkPSJNODg0LjgxMjk1NiAxMDI0YTQuNjI0NjczIDQuNjI0NjczIDAgMCAxLTIuODM5NzExLTAuOTczNjE1TDc2My43NjAxMDggOTMzLjA0ODA5NEgyNTEuNjM4NDA2Yy0yNS42Mzg1MzkgMC00Ni40OTAxMzUtMjcuMjYxMjMxLTQ2LjQ5MDEzNi02MC43Njk4MjhWNjEzLjk0NTY0NmMwLTMzLjUwODU5NyAyMC44NTE1OTctNjAuNzY5ODI4IDQ2LjQ5MDEzNi02MC43Njk4MjhoNTkyLjI4MjcwM2MyNS42Mzg1MzkgMCA0Ni40OTAxMzUgMjcuMjYxMjMxIDQ2LjQ5MDEzNiA2MC43Njk4Mjh2NDAyLjc1MjIzOGE4LjExMzQ2MiA4LjExMzQ2MiAwIDAgMS0yLjgzOTcxMiA2LjMyODUwMSA0LjYyNDY3MyA0LjYyNDY3MyAwIDAgMS0yLjc1ODU3NyAwLjk3MzYxNXpNMjUxLjYzODQwNiA1NjcuOTQyMzE4Yy0xOS40NzIzMDggMC0zNS4yOTM1NTggMjAuNjg5MzI3LTM1LjI5MzU1OSA0Ni4xNjU1OTd2MjU4LjAwODA4MmMwIDI1LjQ3NjI3IDE2LjIyNjkyMyA0Ni4xNjU1OTcgMzUuMjkzNTU5IDQ2LjE2NTU5N2g1MTMuNTgyMTI1YTQuNjI0NjczIDQuNjI0NjczIDAgMCAxIDIuODM5NzExIDAuOTczNjE2bDExMS4xNTQ0MjYgODQuODY2ODA5VjYxMy45NDU2NDZjMC0yNS40NzYyNy0xNi4yMjY5MjMtNDYuMTY1NTk3LTM1LjI5MzU1OS00Ni4xNjU1OTd6Ii8%2BPC9zdmc%2B%3B%22%20vertex%3D%221%22%20parent%3D%224%22%3E%3CmxGeometry%20x%3D%22361%22%20width%3D%2250%22%20height%3D%2260%22%20as%3D%22geometry%22%2F%3E%3C%2FmxCell%3E%3CmxCell%20id%3D%229%22%20value%3D%22%22%20style%3D%22shape%3Dimage%3BverticalLabelPosition%3Dbottom%3BlabelBackgroundColor%3Ddefault%3BverticalAlign%3Dtop%3Baspect%3Dfixed%3BimageAspect%3D0%3BeditableCssRules%3D.*%3Bimage%3Ddata%3Aimage%2Fsvg%2Bxml%2CPHN2ZyB4bWxuczp4bGluaz0iaHR0cDovL3d3dy53My5vcmcvMTk5OS94bGluayIgeG1sbnM9Imh0dHA6Ly93d3cudzMub3JnLzIwMDAvc3ZnIiBoZWlnaHQ9IjE1Ni4yNSIgd2lkdGg9IjE1MCIgZGF0YS1zcG0tYW5jaG9yLWlkPSJhMzEzeC5zZWFyY2hfaW5kZXguMC5pMTQuNDBlNzNhODE1bVpERkciIGRhdGEtZGFya3JlYWRlci1pbmxpbmUtZmlsbD0iIiB2ZXJzaW9uPSIxLjEiIHZpZXdCb3g9IjEyOCAxMjggNzY4IDgwMCIgY2xhc3M9Imljb24iPjxwYXRoIGNsYXNzPSJzZWxlY3RlZCIgZGF0YS1zcG0tYW5jaG9yLWlkPSJhMzEzeC5zZWFyY2hfaW5kZXguMC5pMTYuNDBlNzNhODE1bVpERkciIHN0eWxlPSItLWRhcmtyZWFkZXItaW5saW5lLWZpbGw6IHZhcigtLWRhcmtyZWFkZXItYmFja2dyb3VuZC03MDcwNzAsICM1NDViNWYpOyIgZGF0YS1kYXJrcmVhZGVyLWlubGluZS1maWxsPSIiIGZpbGw9IiM3MDcwNzAiIGQ9Ik03MzYgNzM2SDE2MGMtMTcuNiAwLTMyLTE0LjQtMzItMzJWMTYwYzAtMTcuNiAxNC40LTMyIDMyLTMyaDU3NmMxNy42IDAgMzIgMTQuNCAzMiAzMnY1NDRjMCAxNy42LTE0LjQgMzItMzIgMzJ6IG0tNTQ0LTY0aDUxMlYxOTJIMTkydjQ4MHoiLz48cGF0aCBjbGFzcz0ic2VsZWN0ZWQiIGRhdGEtc3BtLWFuY2hvci1pZD0iYTMxM3guc2VhcmNoX2luZGV4LjAuaTE1LjQwZTczYTgxNW1aREZHIiBzdHlsZT0iLS1kYXJrcmVhZGVyLWlubGluZS1maWxsOiB2YXIoLS1kYXJrcmVhZGVyLWJhY2tncm91bmQtNzA3MDcwLCAjNTQ1YjVmKTsiIGRhdGEtZGFya3JlYWRlci1pbmxpbmUtZmlsbD0iIiBmaWxsPSIjNzA3MDcwIiBkPSJNMzc0LjQgNTkybDE2LTUyLjhoMTEzLjZsMTYgNTIuOEg2MjRsLTEyMS42LTMyMGgtMTA4LjhMMjcyIDU5MmgxMDIuNHogbTEwNS42LTEyOGgtNjRsMzItMTEyIDMyIDExMnoiLz48cGF0aCBjbGFzcz0ic2VsZWN0ZWQiIGRhdGEtc3BtLWFuY2hvci1pZD0iYTMxM3guc2VhcmNoX2luZGV4LjAuaTE4LjQwZTczYTgxNW1aREZHIiBzdHlsZT0iLS1kYXJrcmVhZGVyLWlubGluZS1maWxsOiB2YXIoLS1kYXJrcmVhZGVyLWJhY2tncm91bmQtNzA3MDcwLCAjNTQ1YjVmKTsiIGRhdGEtZGFya3JlYWRlci1pbmxpbmUtZmlsbD0iIiBmaWxsPSIjNzA3MDcwIiBkPSJNODY0IDkyOEgxNjBjLTE3LjYgMC0zMi0xNC40LTMyLTMyVjcwNGMwLTE3LjYgMTQuNC0zMiAzMi0zMnMzMiAxNC40IDMyIDMydjE2MGg2NDBWMjI0YzAtMTcuNiAxNC40LTMyIDMyLTMyczMyIDE0LjQgMzIgMzJ2NjcyYzAgMTcuNi0xNC40IDMyLTMyIDMyeiIvPjxwYXRoIGNsYXNzPSJzZWxlY3RlZCIgZGF0YS1zcG0tYW5jaG9yLWlkPSJhMzEzeC5zZWFyY2hfaW5kZXguMC5pMTcuNDBlNzNhODE1bVpERkciIHN0eWxlPSItLWRhcmtyZWFkZXItaW5saW5lLWZpbGw6IHZhcigtLWRhcmtyZWFkZXItYmFja2dyb3VuZC03MDcwNzAsICM1NDViNWYpOyIgZGF0YS1kYXJrcmVhZGVyLWlubGluZS1maWxsPSIiIGZpbGw9IiM3MDcwNzAiIGQ9Ik03NjggODMySDI1NmMtMTcuNiAwLTMyLTE0LjQtMzItMzJzMTQuNC0zMiAzMi0zMmg1MTJjMTcuNiAwIDMyIDE0LjQgMzIgMzJzLTE0LjQgMzItMzIgMzJ6Ii8%2BPC9zdmc%2B%3B%22%20vertex%3D%221%22%20parent%3D%224%22%3E%3CmxGeometry%20x%3D%225%22%20y%3D%224%22%20width%3D%2250%22%20height%3D%2250%22%20as%3D%22geometry%22%2F%3E%3C%2FmxCell%3E%3CmxCell%20id%3D%2210%22%20value%3D%22Dictionary%22%20style%3D%22text%3Bhtml%3D1%3Balign%3Dcenter%3BverticalAlign%3Dmiddle%3BwhiteSpace%3Dwrap%3Brounded%3D0%3BfontStyle%3D1%3BfontColor%3D%23292929%3BfontSize%3D16%3B%22%20vertex%3D%221%22%20parent%3D%224%22%3E%3CmxGeometry%20y%3D%2260%22%20width%3D%2260%22%20height%3D%2230%22%20as%3D%22geometry%22%2F%3E%3C%2FmxCell%3E%3CmxCell%20id%3D%2211%22%20value%3D%22Translation%22%20style%3D%22text%3Bhtml%3D1%3Balign%3Dcenter%3BverticalAlign%3Dmiddle%3BwhiteSpace%3Dwrap%3Brounded%3D0%3BfontStyle%3D1%3BfontColor%3D%23292929%3BfontSize%3D16%3B%22%20vertex%3D%221%22%20parent%3D%224%22%3E%3CmxGeometry%20x%3D%2294%22%20y%3D%2260%22%20width%3D%2260%22%20height%3D%2230%22%20as%3D%22geometry%22%2F%3E%3C%2FmxCell%3E%3CmxCell%20id%3D%2212%22%20value%3D%22QA%22%20style%3D%22text%3Bhtml%3D1%3Balign%3Dcenter%3BverticalAlign%3Dmiddle%3BwhiteSpace%3Dwrap%3Brounded%3D0%3BfontStyle%3D1%3BfontColor%3D%23292929%3BfontSize%3D16%3B%22%20vertex%3D%221%22%20parent%3D%224%22%3E%3CmxGeometry%20x%3D%22184%22%20y%3D%2260%22%20width%3D%2260%22%20height%3D%2230%22%20as%3D%22geometry%22%2F%3E%3C%2FmxCell%3E%3CmxCell%20id%3D%2213%22%20value%3D%22Continue%20Writing%22%20style%3D%22text%3Bhtml%3D1%3Balign%3Dcenter%3BverticalAlign%3Dmiddle%3BwhiteSpace%3Dwrap%3Brounded%3D0%3BfontStyle%3D1%3BfontColor%3D%23292929%3BfontSize%3D16%3B%22%20vertex%3D%221%22%20parent%3D%224%22%3E%3CmxGeometry%20x%3D%22267%22%20y%3D%2265%22%20width%3D%2260%22%20height%3D%2230%22%20as%3D%22geometry%22%2F%3E%3C%2FmxCell%3E%3CmxCell%20id%3D%2214%22%20value%3D%22Dialogue%22%20style%3D%22text%3Bhtml%3D1%3Balign%3Dcenter%3BverticalAlign%3Dmiddle%3BwhiteSpace%3Dwrap%3Brounded%3D0%3BfontStyle%3D1%3BfontColor%3D%23292929%3BfontSize%3D16%3B%22%20vertex%3D%221%22%20parent%3D%224%22%3E%3CmxGeometry%20x%3D%22358%22%20y%3D%2260%22%20width%3D%2260%22%20height%3D%2230%22%20as%3D%22geometry%22%2F%3E%3C%2FmxCell%3E%3C%2Froot%3E%3C%2FmxGraphModel%3E&lt;/span&gt;&lt;span style=&quot;color: rgba(0, 0, 0, 0); font-family: monospace; font-size: 0px; text-align: start; text-wrap-mode: nowrap;&quot;&gt;%3CmxGraphModel%3E%3Croot%3E%3CmxCell%20id%3D%220%22%2F%3E%3CmxCell%20id%3D%221%22%20parent%3D%220%22%2F%3E%3CmxCell%20id%3D%222%22%20value%3D%22%22%20style%3D%22group%22%20vertex%3D%221%22%20connectable%3D%220%22%20parent%3D%221%22%3E%3CmxGeometry%20x%3D%2250%22%20y%3D%22600%22%20width%3D%22471%22%20height%3D%22140%22%20as%3D%22geometry%22%2F%3E%3C%2FmxCell%3E%3CmxCell%20id%3D%223%22%20value%3D%22%22%20style%3D%22rounded%3D0%3BwhiteSpace%3Dwrap%3Bhtml%3D1%3BfillColor%3Dnone%3Bdashed%3D1%3B%22%20vertex%3D%221%22%20parent%3D%222%22%3E%3CmxGeometry%20width%3D%22471%22%20height%3D%22140%22%20as%3D%22geometry%22%2F%3E%3C%2FmxCell%3E%3CmxCell%20id%3D%224%22%20value%3D%22%22%20style%3D%22group%22%20vertex%3D%221%22%20connectable%3D%220%22%20parent%3D%222%22%3E%3CmxGeometry%20x%3D%2226.5%22%20y%3D%2222.5%22%20width%3D%22418%22%20height%3D%2295%22%20as%3D%22geometry%22%2F%3E%3C%2FmxCell%3E%3CmxCell%20id%3D%225%22%20value%3D%22%22%20style%3D%22shape%3Dimage%3BverticalLabelPosition%3Dbottom%3BlabelBackgroundColor%3Ddefault%3BverticalAlign%3Dtop%3Baspect%3Dfixed%3BimageAspect%3D0%3BeditableCssRules%3D.*%3Bimage%3Ddata%3Aimage%2Fsvg%2Bxml%2CPHN2ZyB4bWxuczp4bGluaz0iaHR0cDovL3d3dy53My5vcmcvMTk5OS94bGluayIgeG1sbnM9Imh0dHA6Ly93d3cudzMub3JnLzIwMDAvc3ZnIiBoZWlnaHQ9IjEwMC4wMTIwNjM5ODAxMDI1NCIgd2lkdGg9IjEwMC4wMTg5MzA0MzUxODA2NiIgZGF0YS1kYXJrcmVhZGVyLWlubGluZS1maWxsPSIiIGlkPSJteF9uXzE3NDU3NjMzMjE3MTUiIHZlcnNpb249IjEuMSIgdmlld0JveD0iMjU2LjA1NDQ3Mzg3Njk1MzEgMjQ4Ljk5MDI2NDg5MjU3ODEyIDUxMi4wOTY5MjM4MjgxMjUgNTEyLjA2MTc2NzU3ODEyNSIgY2xhc3M9Imljb24iPjxwYXRoIHN0eWxlPSItLWRhcmtyZWFkZXItaW5saW5lLWZpbGw6IHZhcigtLWRhcmtyZWFkZXItYmFja2dyb3VuZC03ZGM1ZWIsICMxMzU2N2EpOyIgZGF0YS1kYXJrcmVhZGVyLWlubGluZS1maWxsPSIiIGZpbGw9IiM3ZGM1ZWIiIGNsYXNzPSIiIGRhdGEtc3BtLWFuY2hvci1pZD0iYTMxM3guc2VhcmNoX2luZGV4LjAuaTI2LjQwZTczYTgxNW1aREZHIiBkPSJNNDg0LjQgNjIxbC05NC44LTEwMC4xYy0xMC4zLTEwLjgtMjcuNi0xMC44LTM3LjkgMGwtODAuNCA4NC45LTguMSA4LjVjLTcuNyA4LjEtOS4zIDIwLjEtNC4yIDMwIDEuNiAzLjEgMy4yIDYuMiA0LjkgOS4yIDIzLjEgNDEuMyA1NS43IDc1LjggOTQuOCAxMDAuMSAyLjEgMS4zIDQuMiAyLjYgNi40IDMuOSAxMC41IDYuMSAyMy44IDQuMiAzMi4yLTQuNmw2LjYtNyA4MC40LTg0LjkgMi0yLjFjOS41LTEwIDkuNS0yNS43IDAtMzUuN2wtMS45LTIuMnogbS0xMjUuMyA5OS41Yy0yNS44LTE4LjYtNDgtNDIuMy02NS4zLTY5LjctNi40LTEwLjEtNS4yLTIzLjMgMy0zMmw1NC45LTU3LjljMTAuMy0xMC44IDI3LjYtMTAuOCAzNy45IDBsNTkgNjIuM2M5LjUgMTAgOS41IDI1LjcgMCAzNS43bC01NS4zIDU4LjNjLTguOSA5LjQtMjMuNiAxMC45LTM0LjIgMy4zek01NDEuOSAzOTAuMmw5NCA5OS4yYzEwLjIgMTAuNyAyNy4zIDEwLjcgMzcuNSAwbDc5LjctODQuMSA4LTguNWM3LjYtOCA5LjItMTkuOSA0LjEtMjkuNy0xLjYtMy4xLTMuMi02LjEtNC45LTkuMS0yMi45LTQwLjktNTUuMi03NS05NC05OS4yLTIuMS0xLjMtNC4yLTIuNi02LjMtMy44LTEwLjQtNi4xLTIzLjYtNC4xLTMxLjkgNC42bC02LjYgNi45LTc5LjcgODQuMS0yIDIuMWMtOS40IDkuOS05LjQgMjUuNCAwIDM1LjRsMi4xIDIuMXogbTEyNC4yLTk4LjZjMjUuNSAxOC40IDQ3LjUgNDEuOSA2NC43IDY5IDYuMyAxMCA1LjIgMjMuMS0zIDMxLjdsLTU0LjQgNTcuNGMtMTAuMiAxMC43LTI3LjMgMTAuNy0zNy41IDBMNTc3LjQgMzg4Yy05LjQtOS45LTkuNC0yNS40IDAtMzUuNGw1NC43LTU3LjhjOS05LjMgMjMuNS0xMC43IDM0LTMuMnpNNDI5LjIgMjUzLjZjLTQuNi00LjktMTIuMS02LjEtMTcuOC0yLjYtNSAzLTkuOSA2LjItMTQuOCA5LjYtMzkuMiAyNy41LTcxLjIgNjUuMy05Mi45IDEwOS43LTQuMyA4LjctOCAxNy43LTExLjQgMjYuOWwtOS45LTE0Yy00LjgtNi43LTE0LjMtOC4xLTIwLjctMy02IDQuOC03LjIgMTMuNC0yLjggMTkuNmwzNC4xIDQ4YzUuOCA4LjEgMTcuOCA4LjEgMjMuNiAwbDM0LjEtNDhjNC40LTYuMiAzLjItMTQuOS0yLjgtMTkuNmwtMTEuOS05LjQtMS45IDIuNmMyMC4zLTM3LjEgNDguNy02OC41IDgyLjktOTEuNCAzLjItMi4xIDYuNC00LjIgOS43LTYuMiA3LjgtNC43IDkuMS0xNS40IDIuOS0yMmwtMC40LTAuMnogbS0xMjQuNSAxNjFsLTUuMS03LjIgNS45IDYuMi0wLjggMXpNNzY1LjQgNjEyLjZsLTM0LjEtNDhjLTUuOC04LjEtMTcuOC04LjEtMjMuNiAwbC0zNC4xIDQ4Yy00LjQgNi4yLTMuMiAxNC45IDIuOCAxOS42IDYuNSA1LjEgMTYgMy44IDIwLjctM2wyMi4zLTMxLjQgNC4xIDUuOC0wLjctMC44Yy00LjIgOS4yLTguOSAxOC4xLTE0IDI2LjctMjUuMyA0Mi4xLTYxLjUgNzYtMTA0LjUgOTcuNS0zIDEuNS02IDMtOS4xIDQuMy05IDQuMS0xMS4yIDE1LjctNC40IDIyLjlsMC4yIDAuM2M0LjIgNC40IDEwLjggNS45IDE2LjQgMy40IDYtMi43IDEyLTUuNiAxNy44LTguOCA0Mi0yMyA3Ny44LTU2LjggMTAzLjktOTguMSA0LjUtNy4xIDguNS0xNC42IDEyLjQtMjIuMWw5LjEgMTIuOCAxMS45LTkuNGM2LjEtNC44IDcuNC0xMy40IDIuOS0xOS43eiIvPjwvc3ZnPg%3D%3D%3B%22%20vertex%3D%221%22%20parent%3D%224%22%3E%3CmxGeometry%20x%3D%2299%22%20y%3D%224%22%20width%3D%2250%22%20height%3D%2250%22%20as%3D%22geometry%22%2F%3E%3C%2FmxCell%3E%3CmxCell%20id%3D%226%22%20value%3D%22%22%20style%3D%22shape%3Dimage%3BverticalLabelPosition%3Dbottom%3BlabelBackgroundColor%3Ddefault%3BverticalAlign%3Dtop%3Baspect%3Dfixed%3BimageAspect%3D0%3BeditableCssRules%3D.*%3Bimage%3Ddata%3Aimage%2Fsvg%2Bxml%2CPHN2ZyB4bWxuczp4bGluaz0iaHR0cDovL3d3dy53My5vcmcvMTk5OS94bGluayIgeG1sbnM9Imh0dHA6Ly93d3cudzMub3JnLzIwMDAvc3ZnIiBoZWlnaHQ9IjE4My4zMzMzMzczMDY5NzYzMiIgd2lkdGg9IjE4My4zMzMzMjUzODYwNDczNiIgZGF0YS1kYXJrcmVhZGVyLWlubGluZS1maWxsPSIiIHZlcnNpb249IjEuMSIgdmlld0JveD0iNDIuNjY2NjY3OTM4MjMyNDIgNDIuNjY2NjY3OTM4MjMyNDIgOTM4LjY2NjYyNTk3NjU2MjUgOTM4LjY2NjY4NzAxMTcxODgiIGNsYXNzPSJpY29uIj48cGF0aCBzdHlsZT0iLS1kYXJrcmVhZGVyLWlubGluZS1maWxsOiB2YXIoLS1kYXJrcmVhZGVyLWJhY2tncm91bmQtNGQ0ZDRkLCAjM2EzZjQxKTsiIGRhdGEtZGFya3JlYWRlci1pbmxpbmUtZmlsbD0iIiBmaWxsPSIjNEQ0RDREIiBkPSJNOTYwIDQyLjY2NjY2N0gyMzQuNjY2NjY3Yy0xMi44IDAtMjEuMzMzMzMzIDguNTMzMzMzLTIxLjMzMzMzNCAyMS4zMzMzMzN2NDI2LjY2NjY2N0g2NGMtMTIuOCAwLTIxLjMzMzMzMyA4LjUzMzMzMy0yMS4zMzMzMzMgMjEuMzMzMzMzdjQ0OGMwIDguNTMzMzMzIDYuNCAxNy4wNjY2NjcgMTQuOTMzMzMzIDE5LjIgMi4xMzMzMzMgMi4xMzMzMzMgNC4yNjY2NjcgMi4xMzMzMzMgNi40IDIuMTMzMzMzIDYuNCAwIDEyLjgtMi4xMzMzMzMgMTcuMDY2NjY3LTguNTMzMzMzTDE2MCA4NzQuNjY2NjY3SDUzMy4zMzMzMzNjMTIuOCAwIDIxLjMzMzMzMy04LjUzMzMzMyAyMS4zMzMzMzQtMjEuMzMzMzM0VjY0MGgyODhsMTAwLjI2NjY2NiAxMTkuNDY2NjY3YzQuMjY2NjY3IDQuMjY2NjY3IDEwLjY2NjY2NyA4LjUzMzMzMyAxNy4wNjY2NjcgOC41MzMzMzMgMi4xMzMzMzMgMCA0LjI2NjY2NyAwIDYuNC0yLjEzMzMzMyA4LjUzMzMzMy0yLjEzMzMzMyAxNC45MzMzMzMtMTAuNjY2NjY3IDE0LjkzMzMzMy0xOS4yVjY0YzAtMTIuOC04LjUzMzMzMy0yMS4zMzMzMzMtMjEuMzMzMzMzLTIxLjMzMzMzM3pNNTEyIDgzMkgxNDkuMzMzMzMzYy02LjQgMC0xMi44IDIuMTMzMzMzLTE3LjA2NjY2NiA4LjUzMzMzM0w4NS4zMzMzMzMgOTAwLjI2NjY2N1Y1MzMuMzMzMzMzaDQyNi42NjY2Njd2Mjk4LjY2NjY2N3ogbTQyNi42NjY2NjctMTQ1LjA2NjY2N2wtNjguMjY2NjY3LTgzLjJjLTQuMjY2NjY3LTQuMjY2NjY3LTEwLjY2NjY2Ny02LjQtMTcuMDY2NjY3LTYuNEg1NTQuNjY2NjY3di04NS4zMzMzMzNjMC0xMi44LTguNTMzMzMzLTIxLjMzMzMzMy0yMS4zMzMzMzQtMjEuMzMzMzMzSDI1NlY4NS4zMzMzMzNoNjgyLjY2NjY2N3Y2MDEuNnpNMzIwIDU3NmgtNDIuNjY2NjY3djEyOGg0Mi42NjY2Njd2LTEyOHogbTAgMTcwLjY2NjY2N2gtNDIuNjY2NjY3djQyLjY2NjY2Nmg0Mi42NjY2Njd2LTQyLjY2NjY2NnogbTIxMy4zMzMzMzMtNTIwLjUzMzMzNGw2NC0zMiA2NCAzMnYzOC40bC03Mi41MzMzMzMgMzYuMjY2NjY3Yy04LjUzMzMzMyA0LjI2NjY2Ny0xMi44IDEwLjY2NjY2Ny0xMi44IDE5LjJ2NDIuNjY2NjY3aDQyLjY2NjY2N3YtMjkuODY2NjY3bDcyLjUzMzMzMy0zNi4yNjY2NjdjNi40LTQuMjY2NjY3IDEyLjgtMTAuNjY2NjY3IDEyLjgtMTkuMnYtNjRjMC04LjUzMzMzMy00LjI2NjY2Ny0xNC45MzMzMzMtMTIuOC0xOS4ybC04NS4zMzMzMzMtNDIuNjY2NjY2Yy02LjQtMi4xMzMzMzMtMTIuOC0yLjEzMzMzMy0xOS4yIDBsLTg1LjMzMzMzNCA0Mi42NjY2NjZjLTYuNCA0LjI2NjY2Ny0xMC42NjY2NjcgMTAuNjY2NjY3LTEwLjY2NjY2NiAxOS4ydjY0aDQyLjY2NjY2NnYtNTEuMnpNNTc2IDQ0OGg0Mi42NjY2Njd2LTQyLjY2NjY2N2gtNDIuNjY2NjY3djQyLjY2NjY2N3oiLz48L3N2Zz4%3D%3B%22%20vertex%3D%221%22%20parent%3D%224%22%3E%3CmxGeometry%20x%3D%22189%22%20y%3D%224%22%20width%3D%2250%22%20height%3D%2250%22%20as%3D%22geometry%22%2F%3E%3C%2FmxCell%3E%3CmxCell%20id%3D%227%22%20value%3D%22%22%20style%3D%22shape%3Dimage%3BverticalLabelPosition%3Dbottom%3BlabelBackgroundColor%3Ddefault%3BverticalAlign%3Dtop%3Baspect%3Dfixed%3BimageAspect%3D0%3BeditableCssRules%3D.*%3Bimage%3Ddata%3Aimage%2Fsvg%2Bxml%2CPHN2ZyB4bWxuczp4bGluaz0iaHR0cDovL3d3dy53My5vcmcvMTk5OS94bGluayIgeG1sbnM9Imh0dHA6Ly93d3cudzMub3JnLzIwMDAvc3ZnIiBoZWlnaHQ9IjEyOS4xNjY2NjI2OTMwMjM2OCIgd2lkdGg9IjE1MC4xMTEyNDYxMDkwMDg4IiBkYXRhLWRhcmtyZWFkZXItaW5saW5lLWZpbGw9IiIgdmVyc2lvbj0iMS4xIiB2aWV3Qm94PSIxMjcuOTk5OTkyMzcwNjA1NDcgMTc5LjIwMDAxMjIwNzAzMTI1IDc2OC41Njk1ODAwNzgxMjUgNjYxLjMzMzMxMjk4ODI4MTIiIGNsYXNzPSJpY29uIj48cGF0aCBmaWxsPSIjMWFhYmE4IiBkPSJNMTY2LjQgMjU2aDU4MC4yNjY2NjdjMjEuMzMzMzMzIDAgMzguNC0xNy4wNjY2NjcgMzguNC0zOC40cy0xNy4wNjY2NjctMzguNC0zOC40LTM4LjRIMTY2LjRjLTIxLjMzMzMzMyAwLTM4LjQgMTcuMDY2NjY3LTM4LjQgMzguNHMxNy4wNjY2NjcgMzguNCAzOC40IDM4LjR6IG0wIDE4Ny43MzMzMzNoMzk2LjhjMjEuMzMzMzMzIDAgMzguNC0xNy4wNjY2NjcgMzguNC0zOC40cy0xNy4wNjY2NjctMzguNC0zOC40LTM4LjRIMTY2LjRjLTIxLjMzMzMzMyAwLTM4LjQgMTcuMDY2NjY3LTM4LjQgMzguNHMxNy4wNjY2NjcgMzguNCAzOC40IDM4LjR6TTIxMy4zMzMzMzMgNTU4LjkzMzMzM0gxNjYuNGMtMjEuMzMzMzMzIDAtMzguNCAxNy4wNjY2NjctMzguNCAzOC40czE3LjA2NjY2NyAzOC40IDM4LjQgMzguNEgyMTMuMzMzMzMzYzIxLjMzMzMzMyAwIDM4LjQtMTcuMDY2NjY3IDM4LjQtMzguNHMtMTcuMDY2NjY3LTM4LjQtMzguNC0zOC40eiBtMjAwLjUzMzMzNCAwSDM0MS4zMzMzMzNjLTIxLjMzMzMzMyAwLTM4LjQgMTcuMDY2NjY3LTM4LjQgMzguNHMxNy4wNjY2NjcgMzguNCAzOC40IDM4LjRoNzIuNTMzMzM0YzIxLjMzMzMzMyAwIDM4LjQtMTcuMDY2NjY3IDM4LjQtMzguNHMtMTcuMDY2NjY3LTM4LjQtMzguNC0zOC40ek0xNzAuNjY2NjY3IDc0Ni42NjY2NjdjLTI1LjYgMC00Mi42NjY2NjcgMTcuMDY2NjY3LTQyLjY2NjY2NyAzOC40czE3LjA2NjY2NyAzOC40IDM4LjQgMzguNEgxNzAuNjY2NjY3YzIxLjMzMzMzMyAwIDM4LjQtMTcuMDY2NjY3IDM4LjQtMzguNHMtMTcuMDY2NjY3LTM4LjQtMzguNC0zOC40eiBtMTEwLjkzMzMzMyAwYy0yNS42IDAtNDIuNjY2NjY3IDE3LjA2NjY2Ny00Mi42NjY2NjcgMzguNHMxNy4wNjY2NjcgMzguNCAzOC40IDM4LjRoNC4yNjY2NjdjMjEuMzMzMzMzIDAgMzguNC0xNy4wNjY2NjcgMzguNC0zOC40cy0xNy4wNjY2NjctMzguNC0zOC40LTM4LjR6IG0xMTUuMiAwYy0yNS42IDAtNDIuNjY2NjY3IDE3LjA2NjY2Ny00Mi42NjY2NjcgMzguNHMxNy4wNjY2NjcgMzguNCAzOC40IDM4LjRoNC4yNjY2NjdjMjEuMzMzMzMzIDAgMzguNC0xNy4wNjY2NjcgMzguNC0zOC40cy0xNy4wNjY2NjctMzguNC0zOC40LTM4LjR6TTg3OC45MzMzMzMgNDI2LjY2NjY2N2wtNzIuNTMzMzMzLTUxLjJjLTE3LjA2NjY2Ny0xMi44LTQyLjY2NjY2Ny04LjUzMzMzMy01OS43MzMzMzMgOC41MzMzMzNsLTIyMS44NjY2NjcgMzExLjQ2NjY2N2MtNC4yNjY2NjcgOC41MzMzMzMtOC41MzMzMzMgMTIuOC04LjUzMzMzMyAyMS4zMzMzMzN2MTAyLjRjMCAxMi44IDEyLjggMjEuMzMzMzMzIDIxLjMzMzMzMyAyMS4zMzMzMzNoOC41MzMzMzNMNjQwIDgxMC42NjY2NjdjOC41MzMzMzMtNC4yNjY2NjcgMTIuOC04LjUzMzMzMyAxNy4wNjY2NjctMTIuOGwyMjEuODY2NjY2LTMxMS40NjY2NjdjMjUuNi0yMS4zMzMzMzMgMjEuMzMzMzMzLTQ2LjkzMzMzMyAwLTU5LjczMzMzM3ogbS0yNTYgMzI4LjUzMzMzM2wtNDIuNjY2NjY2IDEyLjh2LTQyLjY2NjY2N2wyMDQuOC0yODUuODY2NjY2IDQyLjY2NjY2NiAyOS44NjY2NjYtMjA0LjggMjg1Ljg2NjY2N3oiLz48L3N2Zz4%3D%3B%22%20vertex%3D%221%22%20parent%3D%224%22%3E%3CmxGeometry%20x%3D%22271%22%20y%3D%224%22%20width%3D%2260%22%20height%3D%2250%22%20as%3D%22geometry%22%2F%3E%3C%2FmxCell%3E%3CmxCell%20id%3D%228%22%20value%3D%22%22%20style%3D%22shape%3Dimage%3BverticalLabelPosition%3Dbottom%3BlabelBackgroundColor%3Ddefault%3BverticalAlign%3Dtop%3Baspect%3Dfixed%3BimageAspect%3D0%3BeditableCssRules%3D.*%3Bimage%3Ddata%3Aimage%2Fsvg%2Bxml%2CPHN2ZyB4bWxuczp4bGluaz0iaHR0cDovL3d3dy53My5vcmcvMTk5OS94bGluayIgeG1sbnM9Imh0dHA6Ly93d3cudzMub3JnLzIwMDAvc3ZnIiBoZWlnaHQ9IjIwMCIgd2lkdGg9IjE0Ny44MTc1NDAxNjg3NjIyIiB2ZXJzaW9uPSIxLjEiIHZpZXdCb3g9IjEzMy41ODcxMjc2ODU1NDY4OCAwIDc1Ni44MjU4MDU2NjQwNjI1IDEwMjQiIGNsYXNzPSJpY29uIj48cGF0aCBmaWxsPSIjNjk0OTREIiBkPSJNMTM5LjE4NTgyNyA1MTkuMjYxNTQ4YTQuNjI0NjczIDQuNjI0NjczIDAgMCAxLTIuNzU4NTc3LTAuOTczNjE1IDguMTEzNDYyIDguMTEzNDYyIDAgMCAxLTIuODM5NzEyLTYuMjQ3MzY2VjY2LjQ0OTI1MUMxMzMuNTg3NTM4IDI5Ljc3NjQwNCAxNTYuMzg2MzY2IDAgMTg0LjM3NzgwOCAwSDgzOS40NTg3MDVjMjcuOTkxNDQzIDAgNTAuNzkwMjcgMjkuNzc2NDA0IDUwLjc5MDI3MSA2Ni40NDkyNTF2Mjg1LjQzMTU4M2MwIDM2LjY3Mjg0Ny0yMi43OTg4MjcgNjYuNDQ5MjUxLTUwLjc5MDI3MSA2Ni40NDkyNTFIMjcyLjg5NTY3NUwxNDEuNzAxIDUxOC4yODc5MzNhNC42MjQ2NzMgNC42MjQ2NzMgMCAwIDEtMi41MTUxNzMgMC45NzM2MTV6TTE4NC4zNzc4MDggMTQuNjA0MjMxYy0yMS44MjUyMTIgMC0zOS42NzQ4MjggMjMuMjg1NjM1LTM5LjY3NDgyNyA1MS44NDUwMnY0MzIuODUzMTgxbDEyMy44OTI1Ni05NC41MjE4MjhhNC42MjQ2NzMgNC42MjQ2NzMgMCAwIDEgMi44Mzk3MTEtMC45NzM2MTZIODM5LjQ1ODcwNWMyMS44MjUyMTIgMCAzOS42NzQ4MjgtMjMuMjg1NjM1IDM5LjY3NDgyOC01MS44NDUwMlY2Ni40NDkyNTFDODc5LjIxNDY2OCAzNy44ODk4NjYgODYxLjQ0NjE4NyAxNC42MDQyMzEgODM5LjQ1ODcwNSAxNC42MDQyMzF6Ii8%2BPHBhdGggZmlsbD0iI0IwRTU1QyIgZD0iTTc1Ni40NTc5OTIgOTI1Ljk4OTM4M0gyODYuODUwODNjLTIwLjUyNzA1OCAwLTE4LjI1NTI4OS02Ljg5NjQ0Mi0xOC4yNTUyODktMjguNTU5Mzg1VjcwNy4wMDcwNTJhMzguNTM4OTQzIDM4LjUzODk0MyAwIDAgMSAzNy40MDMwNTgtMzkuNDMxNDI0SDg0Ny41NzIxNjdhMzguNTM4OTQzIDM4LjUzODk0MyAwIDAgMSAzNy40MDMwNTggMzkuNDMxNDI0djI5Ny4xOTYxMDF6Ii8%2BPHBhdGggZmlsbD0iIzY5NDk0RCIgZD0iTTc2NS4wNTgyNjIgMTQ1LjM5MzIzM0gyOTUuMDQ1NDI2YTYuNjUzMDM5IDYuNjUzMDM5IDAgMCAxLTUuNTk4Mjg5LTcuMzAyMTE1IDYuNjUzMDM5IDYuNjUzMDM5IDAgMCAxIDUuNTk4Mjg5LTcuMzAyMTE2aDQ3MC4wMTI4MzZhNi42NTMwMzkgNi42NTMwMzkgMCAwIDEgNS41OTgyODggNy4zMDIxMTYgNi42NTMwMzkgNi42NTMwMzkgMCAwIDEtNS41OTgyODggNy4zMDIxMTV6TTY3NS44MTAxODMgMjY2LjkzMjg5SDI5NS4wNDU0MjZhNy41NDU1MTkgNy41NDU1MTkgMCAwIDEgMC0xNC42MDQyMzFoMzgwLjc2NDc1N2E3LjU0NTUxOSA3LjU0NTUxOSAwIDAgMSAwIDE0LjYwNDIzMXpNNzY1LjA1ODI2MiA2OTAuMDQ5OTE3SDI5NS4wNDU0MjZhNy41NDU1MTkgNy41NDU1MTkgMCAwIDEgMC0xNC42MDQyMzFoNDcwLjAxMjgzNmE3LjU0NTUxOSA3LjU0NTUxOSAwIDAgMSAwIDE0LjYwNDIzMXpNNjc1LjgxMDE4MyA4MTEuMzQ2MTY5SDI5NS4wNDU0MjZhNy41NDU1MTkgNy41NDU1MTkgMCAwIDEgMC0xNC42MDQyMzFoMzgwLjc2NDc1N2E3LjU0NTUxOSA3LjU0NTUxOSAwIDAgMSAwIDE0LjYwNDIzMXoiLz48cGF0aCBmaWxsPSIjNjk0OTREIiBkPSJNODg0LjgxMjk1NiAxMDI0YTQuNjI0NjczIDQuNjI0NjczIDAgMCAxLTIuODM5NzExLTAuOTczNjE1TDc2My43NjAxMDggOTMzLjA0ODA5NEgyNTEuNjM4NDA2Yy0yNS42Mzg1MzkgMC00Ni40OTAxMzUtMjcuMjYxMjMxLTQ2LjQ5MDEzNi02MC43Njk4MjhWNjEzLjk0NTY0NmMwLTMzLjUwODU5NyAyMC44NTE1OTctNjAuNzY5ODI4IDQ2LjQ5MDEzNi02MC43Njk4MjhoNTkyLjI4MjcwM2MyNS42Mzg1MzkgMCA0Ni40OTAxMzUgMjcuMjYxMjMxIDQ2LjQ5MDEzNiA2MC43Njk4Mjh2NDAyLjc1MjIzOGE4LjExMzQ2MiA4LjExMzQ2MiAwIDAgMS0yLjgzOTcxMiA2LjMyODUwMSA0LjYyNDY3MyA0LjYyNDY3MyAwIDAgMS0yLjc1ODU3NyAwLjk3MzYxNXpNMjUxLjYzODQwNiA1NjcuOTQyMzE4Yy0xOS40NzIzMDggMC0zNS4yOTM1NTggMjAuNjg5MzI3LTM1LjI5MzU1OSA0Ni4xNjU1OTd2MjU4LjAwODA4MmMwIDI1LjQ3NjI3IDE2LjIyNjkyMyA0Ni4xNjU1OTcgMzUuMjkzNTU5IDQ2LjE2NTU5N2g1MTMuNTgyMTI1YTQuNjI0NjczIDQuNjI0NjczIDAgMCAxIDIuODM5NzExIDAuOTczNjE2bDExMS4xNTQ0MjYgODQuODY2ODA5VjYxMy45NDU2NDZjMC0yNS40NzYyNy0xNi4yMjY5MjMtNDYuMTY1NTk3LTM1LjI5MzU1OS00Ni4xNjU1OTd6Ii8%2BPC9zdmc%2B%3B%22%20vertex%3D%221%22%20parent%3D%224%22%3E%3CmxGeometry%20x%3D%22361%22%20width%3D%2250%22%20height%3D%2260%22%20as%3D%22geometry%22%2F%3E%3C%2FmxCell%3E%3CmxCell%20id%3D%229%22%20value%3D%22%22%20style%3D%22shape%3Dimage%3BverticalLabelPosition%3Dbottom%3BlabelBackgroundColor%3Ddefault%3BverticalAlign%3Dtop%3Baspect%3Dfixed%3BimageAspect%3D0%3BeditableCssRules%3D.*%3Bimage%3Ddata%3Aimage%2Fsvg%2Bxml%2CPHN2ZyB4bWxuczp4bGluaz0iaHR0cDovL3d3dy53My5vcmcvMTk5OS94bGluayIgeG1sbnM9Imh0dHA6Ly93d3cudzMub3JnLzIwMDAvc3ZnIiBoZWlnaHQ9IjE1Ni4yNSIgd2lkdGg9IjE1MCIgZGF0YS1zcG0tYW5jaG9yLWlkPSJhMzEzeC5zZWFyY2hfaW5kZXguMC5pMTQuNDBlNzNhODE1bVpERkciIGRhdGEtZGFya3JlYWRlci1pbmxpbmUtZmlsbD0iIiB2ZXJzaW9uPSIxLjEiIHZpZXdCb3g9IjEyOCAxMjggNzY4IDgwMCIgY2xhc3M9Imljb24iPjxwYXRoIGNsYXNzPSJzZWxlY3RlZCIgZGF0YS1zcG0tYW5jaG9yLWlkPSJhMzEzeC5zZWFyY2hfaW5kZXguMC5pMTYuNDBlNzNhODE1bVpERkciIHN0eWxlPSItLWRhcmtyZWFkZXItaW5saW5lLWZpbGw6IHZhcigtLWRhcmtyZWFkZXItYmFja2dyb3VuZC03MDcwNzAsICM1NDViNWYpOyIgZGF0YS1kYXJrcmVhZGVyLWlubGluZS1maWxsPSIiIGZpbGw9IiM3MDcwNzAiIGQ9Ik03MzYgNzM2SDE2MGMtMTcuNiAwLTMyLTE0LjQtMzItMzJWMTYwYzAtMTcuNiAxNC40LTMyIDMyLTMyaDU3NmMxNy42IDAgMzIgMTQuNCAzMiAzMnY1NDRjMCAxNy42LTE0LjQgMzItMzIgMzJ6IG0tNTQ0LTY0aDUxMlYxOTJIMTkydjQ4MHoiLz48cGF0aCBjbGFzcz0ic2VsZWN0ZWQiIGRhdGEtc3BtLWFuY2hvci1pZD0iYTMxM3guc2VhcmNoX2luZGV4LjAuaTE1LjQwZTczYTgxNW1aREZHIiBzdHlsZT0iLS1kYXJrcmVhZGVyLWlubGluZS1maWxsOiB2YXIoLS1kYXJrcmVhZGVyLWJhY2tncm91bmQtNzA3MDcwLCAjNTQ1YjVmKTsiIGRhdGEtZGFya3JlYWRlci1pbmxpbmUtZmlsbD0iIiBmaWxsPSIjNzA3MDcwIiBkPSJNMzc0LjQgNTkybDE2LTUyLjhoMTEzLjZsMTYgNTIuOEg2MjRsLTEyMS42LTMyMGgtMTA4LjhMMjcyIDU5MmgxMDIuNHogbTEwNS42LTEyOGgtNjRsMzItMTEyIDMyIDExMnoiLz48cGF0aCBjbGFzcz0ic2VsZWN0ZWQiIGRhdGEtc3BtLWFuY2hvci1pZD0iYTMxM3guc2VhcmNoX2luZGV4LjAuaTE4LjQwZTczYTgxNW1aREZHIiBzdHlsZT0iLS1kYXJrcmVhZGVyLWlubGluZS1maWxsOiB2YXIoLS1kYXJrcmVhZGVyLWJhY2tncm91bmQtNzA3MDcwLCAjNTQ1YjVmKTsiIGRhdGEtZGFya3JlYWRlci1pbmxpbmUtZmlsbD0iIiBmaWxsPSIjNzA3MDcwIiBkPSJNODY0IDkyOEgxNjBjLTE3LjYgMC0zMi0xNC40LTMyLTMyVjcwNGMwLTE3LjYgMTQuNC0zMiAzMi0zMnMzMiAxNC40IDMyIDMydjE2MGg2NDBWMjI0YzAtMTcuNiAxNC40LTMyIDMyLTMyczMyIDE0LjQgMzIgMzJ2NjcyYzAgMTcuNi0xNC40IDMyLTMyIDMyeiIvPjxwYXRoIGNsYXNzPSJzZWxlY3RlZCIgZGF0YS1zcG0tYW5jaG9yLWlkPSJhMzEzeC5zZWFyY2hfaW5kZXguMC5pMTcuNDBlNzNhODE1bVpERkciIHN0eWxlPSItLWRhcmtyZWFkZXItaW5saW5lLWZpbGw6IHZhcigtLWRhcmtyZWFkZXItYmFja2dyb3VuZC03MDcwNzAsICM1NDViNWYpOyIgZGF0YS1kYXJrcmVhZGVyLWlubGluZS1maWxsPSIiIGZpbGw9IiM3MDcwNzAiIGQ9Ik03NjggODMySDI1NmMtMTcuNiAwLTMyLTE0LjQtMzItMzJzMTQuNC0zMiAzMi0zMmg1MTJjMTcuNiAwIDMyIDE0LjQgMzIgMzJzLTE0LjQgMzItMzIgMzJ6Ii8%2BPC9zdmc%2B%3B%22%20vertex%3D%221%22%20parent%3D%224%22%3E%3CmxGeometry%20x%3D%225%22%20y%3D%224%22%20width%3D%2250%22%20height%3D%2250%22%20as%3D%22geometry%22%2F%3E%3C%2FmxCell%3E%3CmxCell%20id%3D%2210%22%20value%3D%22Dictionary%22%20style%3D%22text%3Bhtml%3D1%3Balign%3Dcenter%3BverticalAlign%3Dmiddle%3BwhiteSpace%3Dwrap%3Brounded%3D0%3BfontStyle%3D1%3BfontColor%3D%23292929%3BfontSize%3D16%3B%22%20vertex%3D%221%22%20parent%3D%224%22%3E%3CmxGeometry%20y%3D%2260%22%20width%3D%2260%22%20height%3D%2230%22%20as%3D%22geometry%22%2F%3E%3C%2FmxCell%3E%3CmxCell%20id%3D%2211%22%20value%3D%22Translation%22%20style%3D%22text%3Bhtml%3D1%3Balign%3Dcenter%3BverticalAlign%3Dmiddle%3BwhiteSpace%3Dwrap%3Brounded%3D0%3BfontStyle%3D1%3BfontColor%3D%23292929%3BfontSize%3D16%3B%22%20vertex%3D%221%22%20parent%3D%224%22%3E%3CmxGeometry%20x%3D%2294%22%20y%3D%2260%22%20width%3D%2260%22%20height%3D%2230%22%20as%3D%22geometry%22%2F%3E%3C%2FmxCell%3E%3CmxCell%20id%3D%2212%22%20value%3D%22QA%22%20style%3D%22text%3Bhtml%3D1%3Balign%3Dcenter%3BverticalAlign%3Dmiddle%3BwhiteSpace%3Dwrap%3Brounded%3D0%3BfontStyle%3D1%3BfontColor%3D%23292929%3BfontSize%3D16%3B%22%20vertex%3D%221%22%20parent%3D%224%22%3E%3CmxGeometry%20x%3D%22184%22%20y%3D%2260%22%20width%3D%2260%22%20height%3D%2230%22%20as%3D%22geometry%22%2F%3E%3C%2FmxCell%3E%3CmxCell%20id%3D%2213%22%20value%3D%22Continue%20Writing%22%20style%3D%22text%3Bhtml%3D1%3Balign%3Dcenter%3BverticalAlign%3Dmiddle%3BwhiteSpace%3Dwrap%3Brounded%3D0%3BfontStyle%3D1%3BfontColor%3D%23292929%3BfontSize%3D16%3B%22%20vertex%3D%221%22%20parent%3D%224%22%3E%3CmxGeometry%20x%3D%22267%22%20y%3D%2265%22%20width%3D%2260%22%20height%3D%2230%22%20as%3D%22geometry%22%2F%3E%3C%2FmxCell%3E%3CmxCell%20id%3D%2214%22%20value%3D%22Dialogue%22%20style%3D%22text%3Bhtml%3D1%3Balign%3Dcenter%3BverticalAlign%3Dmiddle%3BwhiteSpace%3Dwrap%3Brounded%3D0%3BfontStyle%3D1%3BfontColor%3D%23292929%3BfontSize%3D16%3B%22%20vertex%3D%221%22%20parent%3D%224%22%3E%3CmxGeometry%20x%3D%22358%22%20y%3D%2260%22%20width%3D%2260%22%20height%3D%2230%22%20as%3D%22geometry%22%2F%3E%3C%2FmxCell%3E%3C%2Froot%3E%3C%2FmxGraphModel%3E&lt;/span&gt;" style="rounded=0;whiteSpace=wrap;html=1;fillColor=none;dashed=1;" vertex="1" parent="1">
          <mxGeometry x="100" y="180" width="280" height="230" as="geometry" />
        </mxCell>
        <mxCell id="4yoZ3IH44hlJ8WYbjBaj-57" value="" style="shape=image;verticalLabelPosition=bottom;labelBackgroundColor=default;verticalAlign=top;aspect=fixed;imageAspect=0;editableCssRules=.*;image=data:image/svg+xml,PHN2ZyB4bWxuczp4bGluaz0iaHR0cDovL3d3dy53My5vcmcvMTk5OS94bGluayIgeG1sbnM9Imh0dHA6Ly93d3cudzMub3JnLzIwMDAvc3ZnIiBoZWlnaHQ9IjEwMC4wMTIwNjM5ODAxMDI1NCIgd2lkdGg9IjEwMC4wMTg5MzA0MzUxODA2NiIgZGF0YS1kYXJrcmVhZGVyLWlubGluZS1maWxsPSIiIGlkPSJteF9uXzE3NDU3NjMzMjE3MTUiIHZlcnNpb249IjEuMSIgdmlld0JveD0iMjU2LjA1NDQ3Mzg3Njk1MzEgMjQ4Ljk5MDI2NDg5MjU3ODEyIDUxMi4wOTY5MjM4MjgxMjUgNTEyLjA2MTc2NzU3ODEyNSIgY2xhc3M9Imljb24iPjxwYXRoIHN0eWxlPSItLWRhcmtyZWFkZXItaW5saW5lLWZpbGw6IHZhcigtLWRhcmtyZWFkZXItYmFja2dyb3VuZC03ZGM1ZWIsICMxMzU2N2EpOyIgZGF0YS1kYXJrcmVhZGVyLWlubGluZS1maWxsPSIiIGZpbGw9IiM3ZGM1ZWIiIGNsYXNzPSIiIGRhdGEtc3BtLWFuY2hvci1pZD0iYTMxM3guc2VhcmNoX2luZGV4LjAuaTI2LjQwZTczYTgxNW1aREZHIiBkPSJNNDg0LjQgNjIxbC05NC44LTEwMC4xYy0xMC4zLTEwLjgtMjcuNi0xMC44LTM3LjkgMGwtODAuNCA4NC45LTguMSA4LjVjLTcuNyA4LjEtOS4zIDIwLjEtNC4yIDMwIDEuNiAzLjEgMy4yIDYuMiA0LjkgOS4yIDIzLjEgNDEuMyA1NS43IDc1LjggOTQuOCAxMDAuMSAyLjEgMS4zIDQuMiAyLjYgNi40IDMuOSAxMC41IDYuMSAyMy44IDQuMiAzMi4yLTQuNmw2LjYtNyA4MC40LTg0LjkgMi0yLjFjOS41LTEwIDkuNS0yNS43IDAtMzUuN2wtMS45LTIuMnogbS0xMjUuMyA5OS41Yy0yNS44LTE4LjYtNDgtNDIuMy02NS4zLTY5LjctNi40LTEwLjEtNS4yLTIzLjMgMy0zMmw1NC45LTU3LjljMTAuMy0xMC44IDI3LjYtMTAuOCAzNy45IDBsNTkgNjIuM2M5LjUgMTAgOS41IDI1LjcgMCAzNS43bC01NS4zIDU4LjNjLTguOSA5LjQtMjMuNiAxMC45LTM0LjIgMy4zek01NDEuOSAzOTAuMmw5NCA5OS4yYzEwLjIgMTAuNyAyNy4zIDEwLjcgMzcuNSAwbDc5LjctODQuMSA4LTguNWM3LjYtOCA5LjItMTkuOSA0LjEtMjkuNy0xLjYtMy4xLTMuMi02LjEtNC45LTkuMS0yMi45LTQwLjktNTUuMi03NS05NC05OS4yLTIuMS0xLjMtNC4yLTIuNi02LjMtMy44LTEwLjQtNi4xLTIzLjYtNC4xLTMxLjkgNC42bC02LjYgNi45LTc5LjcgODQuMS0yIDIuMWMtOS40IDkuOS05LjQgMjUuNCAwIDM1LjRsMi4xIDIuMXogbTEyNC4yLTk4LjZjMjUuNSAxOC40IDQ3LjUgNDEuOSA2NC43IDY5IDYuMyAxMCA1LjIgMjMuMS0zIDMxLjdsLTU0LjQgNTcuNGMtMTAuMiAxMC43LTI3LjMgMTAuNy0zNy41IDBMNTc3LjQgMzg4Yy05LjQtOS45LTkuNC0yNS40IDAtMzUuNGw1NC43LTU3LjhjOS05LjMgMjMuNS0xMC43IDM0LTMuMnpNNDI5LjIgMjUzLjZjLTQuNi00LjktMTIuMS02LjEtMTcuOC0yLjYtNSAzLTkuOSA2LjItMTQuOCA5LjYtMzkuMiAyNy41LTcxLjIgNjUuMy05Mi45IDEwOS43LTQuMyA4LjctOCAxNy43LTExLjQgMjYuOWwtOS45LTE0Yy00LjgtNi43LTE0LjMtOC4xLTIwLjctMy02IDQuOC03LjIgMTMuNC0yLjggMTkuNmwzNC4xIDQ4YzUuOCA4LjEgMTcuOCA4LjEgMjMuNiAwbDM0LjEtNDhjNC40LTYuMiAzLjItMTQuOS0yLjgtMTkuNmwtMTEuOS05LjQtMS45IDIuNmMyMC4zLTM3LjEgNDguNy02OC41IDgyLjktOTEuNCAzLjItMi4xIDYuNC00LjIgOS43LTYuMiA3LjgtNC43IDkuMS0xNS40IDIuOS0yMmwtMC40LTAuMnogbS0xMjQuNSAxNjFsLTUuMS03LjIgNS45IDYuMi0wLjggMXpNNzY1LjQgNjEyLjZsLTM0LjEtNDhjLTUuOC04LjEtMTcuOC04LjEtMjMuNiAwbC0zNC4xIDQ4Yy00LjQgNi4yLTMuMiAxNC45IDIuOCAxOS42IDYuNSA1LjEgMTYgMy44IDIwLjctM2wyMi4zLTMxLjQgNC4xIDUuOC0wLjctMC44Yy00LjIgOS4yLTguOSAxOC4xLTE0IDI2LjctMjUuMyA0Mi4xLTYxLjUgNzYtMTA0LjUgOTcuNS0zIDEuNS02IDMtOS4xIDQuMy05IDQuMS0xMS4yIDE1LjctNC40IDIyLjlsMC4yIDAuM2M0LjIgNC40IDEwLjggNS45IDE2LjQgMy40IDYtMi43IDEyLTUuNiAxNy44LTguOCA0Mi0yMyA3Ny44LTU2LjggMTAzLjktOTguMSA0LjUtNy4xIDguNS0xNC42IDEyLjQtMjIuMWw5LjEgMTIuOCAxMS45LTkuNGM2LjEtNC44IDcuNC0xMy40IDIuOS0xOS43eiIvPjwvc3ZnPg==;" vertex="1" parent="1">
          <mxGeometry x="225.5" y="206.5" width="50" height="50" as="geometry" />
        </mxCell>
        <mxCell id="4yoZ3IH44hlJ8WYbjBaj-58" value="" style="shape=image;verticalLabelPosition=bottom;labelBackgroundColor=default;verticalAlign=top;aspect=fixed;imageAspect=0;editableCssRules=.*;image=data:image/svg+xml,PHN2ZyB4bWxuczp4bGluaz0iaHR0cDovL3d3dy53My5vcmcvMTk5OS94bGluayIgeG1sbnM9Imh0dHA6Ly93d3cudzMub3JnLzIwMDAvc3ZnIiBoZWlnaHQ9IjE4My4zMzMzMzczMDY5NzYzMiIgd2lkdGg9IjE4My4zMzMzMjUzODYwNDczNiIgZGF0YS1kYXJrcmVhZGVyLWlubGluZS1maWxsPSIiIHZlcnNpb249IjEuMSIgdmlld0JveD0iNDIuNjY2NjY3OTM4MjMyNDIgNDIuNjY2NjY3OTM4MjMyNDIgOTM4LjY2NjYyNTk3NjU2MjUgOTM4LjY2NjY4NzAxMTcxODgiIGNsYXNzPSJpY29uIj48cGF0aCBzdHlsZT0iLS1kYXJrcmVhZGVyLWlubGluZS1maWxsOiB2YXIoLS1kYXJrcmVhZGVyLWJhY2tncm91bmQtNGQ0ZDRkLCAjM2EzZjQxKTsiIGRhdGEtZGFya3JlYWRlci1pbmxpbmUtZmlsbD0iIiBmaWxsPSIjNEQ0RDREIiBkPSJNOTYwIDQyLjY2NjY2N0gyMzQuNjY2NjY3Yy0xMi44IDAtMjEuMzMzMzMzIDguNTMzMzMzLTIxLjMzMzMzNCAyMS4zMzMzMzN2NDI2LjY2NjY2N0g2NGMtMTIuOCAwLTIxLjMzMzMzMyA4LjUzMzMzMy0yMS4zMzMzMzMgMjEuMzMzMzMzdjQ0OGMwIDguNTMzMzMzIDYuNCAxNy4wNjY2NjcgMTQuOTMzMzMzIDE5LjIgMi4xMzMzMzMgMi4xMzMzMzMgNC4yNjY2NjcgMi4xMzMzMzMgNi40IDIuMTMzMzMzIDYuNCAwIDEyLjgtMi4xMzMzMzMgMTcuMDY2NjY3LTguNTMzMzMzTDE2MCA4NzQuNjY2NjY3SDUzMy4zMzMzMzNjMTIuOCAwIDIxLjMzMzMzMy04LjUzMzMzMyAyMS4zMzMzMzQtMjEuMzMzMzM0VjY0MGgyODhsMTAwLjI2NjY2NiAxMTkuNDY2NjY3YzQuMjY2NjY3IDQuMjY2NjY3IDEwLjY2NjY2NyA4LjUzMzMzMyAxNy4wNjY2NjcgOC41MzMzMzMgMi4xMzMzMzMgMCA0LjI2NjY2NyAwIDYuNC0yLjEzMzMzMyA4LjUzMzMzMy0yLjEzMzMzMyAxNC45MzMzMzMtMTAuNjY2NjY3IDE0LjkzMzMzMy0xOS4yVjY0YzAtMTIuOC04LjUzMzMzMy0yMS4zMzMzMzMtMjEuMzMzMzMzLTIxLjMzMzMzM3pNNTEyIDgzMkgxNDkuMzMzMzMzYy02LjQgMC0xMi44IDIuMTMzMzMzLTE3LjA2NjY2NiA4LjUzMzMzM0w4NS4zMzMzMzMgOTAwLjI2NjY2N1Y1MzMuMzMzMzMzaDQyNi42NjY2Njd2Mjk4LjY2NjY2N3ogbTQyNi42NjY2NjctMTQ1LjA2NjY2N2wtNjguMjY2NjY3LTgzLjJjLTQuMjY2NjY3LTQuMjY2NjY3LTEwLjY2NjY2Ny02LjQtMTcuMDY2NjY3LTYuNEg1NTQuNjY2NjY3di04NS4zMzMzMzNjMC0xMi44LTguNTMzMzMzLTIxLjMzMzMzMy0yMS4zMzMzMzQtMjEuMzMzMzMzSDI1NlY4NS4zMzMzMzNoNjgyLjY2NjY2N3Y2MDEuNnpNMzIwIDU3NmgtNDIuNjY2NjY3djEyOGg0Mi42NjY2Njd2LTEyOHogbTAgMTcwLjY2NjY2N2gtNDIuNjY2NjY3djQyLjY2NjY2Nmg0Mi42NjY2Njd2LTQyLjY2NjY2NnogbTIxMy4zMzMzMzMtNTIwLjUzMzMzNGw2NC0zMiA2NCAzMnYzOC40bC03Mi41MzMzMzMgMzYuMjY2NjY3Yy04LjUzMzMzMyA0LjI2NjY2Ny0xMi44IDEwLjY2NjY2Ny0xMi44IDE5LjJ2NDIuNjY2NjY3aDQyLjY2NjY2N3YtMjkuODY2NjY3bDcyLjUzMzMzMy0zNi4yNjY2NjdjNi40LTQuMjY2NjY3IDEyLjgtMTAuNjY2NjY3IDEyLjgtMTkuMnYtNjRjMC04LjUzMzMzMy00LjI2NjY2Ny0xNC45MzMzMzMtMTIuOC0xOS4ybC04NS4zMzMzMzMtNDIuNjY2NjY2Yy02LjQtMi4xMzMzMzMtMTIuOC0yLjEzMzMzMy0xOS4yIDBsLTg1LjMzMzMzNCA0Mi42NjY2NjZjLTYuNCA0LjI2NjY2Ny0xMC42NjY2NjcgMTAuNjY2NjY3LTEwLjY2NjY2NiAxOS4ydjY0aDQyLjY2NjY2NnYtNTEuMnpNNTc2IDQ0OGg0Mi42NjY2Njd2LTQyLjY2NjY2N2gtNDIuNjY2NjY3djQyLjY2NjY2N3oiLz48L3N2Zz4=;" vertex="1" parent="1">
          <mxGeometry x="315.5" y="206.5" width="50" height="50" as="geometry" />
        </mxCell>
        <mxCell id="4yoZ3IH44hlJ8WYbjBaj-60" value="" style="shape=image;verticalLabelPosition=bottom;labelBackgroundColor=default;verticalAlign=top;aspect=fixed;imageAspect=0;editableCssRules=.*;image=data:image/svg+xml,PHN2ZyB4bWxuczp4bGluaz0iaHR0cDovL3d3dy53My5vcmcvMTk5OS94bGluayIgeG1sbnM9Imh0dHA6Ly93d3cudzMub3JnLzIwMDAvc3ZnIiBoZWlnaHQ9IjEyOS4xNjY2NjI2OTMwMjM2OCIgd2lkdGg9IjE1MC4xMTEyNDYxMDkwMDg4IiBkYXRhLWRhcmtyZWFkZXItaW5saW5lLWZpbGw9IiIgdmVyc2lvbj0iMS4xIiB2aWV3Qm94PSIxMjcuOTk5OTkyMzcwNjA1NDcgMTc5LjIwMDAxMjIwNzAzMTI1IDc2OC41Njk1ODAwNzgxMjUgNjYxLjMzMzMxMjk4ODI4MTIiIGNsYXNzPSJpY29uIj48cGF0aCBmaWxsPSIjMWFhYmE4IiBkPSJNMTY2LjQgMjU2aDU4MC4yNjY2NjdjMjEuMzMzMzMzIDAgMzguNC0xNy4wNjY2NjcgMzguNC0zOC40cy0xNy4wNjY2NjctMzguNC0zOC40LTM4LjRIMTY2LjRjLTIxLjMzMzMzMyAwLTM4LjQgMTcuMDY2NjY3LTM4LjQgMzguNHMxNy4wNjY2NjcgMzguNCAzOC40IDM4LjR6IG0wIDE4Ny43MzMzMzNoMzk2LjhjMjEuMzMzMzMzIDAgMzguNC0xNy4wNjY2NjcgMzguNC0zOC40cy0xNy4wNjY2NjctMzguNC0zOC40LTM4LjRIMTY2LjRjLTIxLjMzMzMzMyAwLTM4LjQgMTcuMDY2NjY3LTM4LjQgMzguNHMxNy4wNjY2NjcgMzguNCAzOC40IDM4LjR6TTIxMy4zMzMzMzMgNTU4LjkzMzMzM0gxNjYuNGMtMjEuMzMzMzMzIDAtMzguNCAxNy4wNjY2NjctMzguNCAzOC40czE3LjA2NjY2NyAzOC40IDM4LjQgMzguNEgyMTMuMzMzMzMzYzIxLjMzMzMzMyAwIDM4LjQtMTcuMDY2NjY3IDM4LjQtMzguNHMtMTcuMDY2NjY3LTM4LjQtMzguNC0zOC40eiBtMjAwLjUzMzMzNCAwSDM0MS4zMzMzMzNjLTIxLjMzMzMzMyAwLTM4LjQgMTcuMDY2NjY3LTM4LjQgMzguNHMxNy4wNjY2NjcgMzguNCAzOC40IDM4LjRoNzIuNTMzMzM0YzIxLjMzMzMzMyAwIDM4LjQtMTcuMDY2NjY3IDM4LjQtMzguNHMtMTcuMDY2NjY3LTM4LjQtMzguNC0zOC40ek0xNzAuNjY2NjY3IDc0Ni42NjY2NjdjLTI1LjYgMC00Mi42NjY2NjcgMTcuMDY2NjY3LTQyLjY2NjY2NyAzOC40czE3LjA2NjY2NyAzOC40IDM4LjQgMzguNEgxNzAuNjY2NjY3YzIxLjMzMzMzMyAwIDM4LjQtMTcuMDY2NjY3IDM4LjQtMzguNHMtMTcuMDY2NjY3LTM4LjQtMzguNC0zOC40eiBtMTEwLjkzMzMzMyAwYy0yNS42IDAtNDIuNjY2NjY3IDE3LjA2NjY2Ny00Mi42NjY2NjcgMzguNHMxNy4wNjY2NjcgMzguNCAzOC40IDM4LjRoNC4yNjY2NjdjMjEuMzMzMzMzIDAgMzguNC0xNy4wNjY2NjcgMzguNC0zOC40cy0xNy4wNjY2NjctMzguNC0zOC40LTM4LjR6IG0xMTUuMiAwYy0yNS42IDAtNDIuNjY2NjY3IDE3LjA2NjY2Ny00Mi42NjY2NjcgMzguNHMxNy4wNjY2NjcgMzguNCAzOC40IDM4LjRoNC4yNjY2NjdjMjEuMzMzMzMzIDAgMzguNC0xNy4wNjY2NjcgMzguNC0zOC40cy0xNy4wNjY2NjctMzguNC0zOC40LTM4LjR6TTg3OC45MzMzMzMgNDI2LjY2NjY2N2wtNzIuNTMzMzMzLTUxLjJjLTE3LjA2NjY2Ny0xMi44LTQyLjY2NjY2Ny04LjUzMzMzMy01OS43MzMzMzMgOC41MzMzMzNsLTIyMS44NjY2NjcgMzExLjQ2NjY2N2MtNC4yNjY2NjcgOC41MzMzMzMtOC41MzMzMzMgMTIuOC04LjUzMzMzMyAyMS4zMzMzMzN2MTAyLjRjMCAxMi44IDEyLjggMjEuMzMzMzMzIDIxLjMzMzMzMyAyMS4zMzMzMzNoOC41MzMzMzNMNjQwIDgxMC42NjY2NjdjOC41MzMzMzMtNC4yNjY2NjcgMTIuOC04LjUzMzMzMyAxNy4wNjY2NjctMTIuOGwyMjEuODY2NjY2LTMxMS40NjY2NjdjMjUuNi0yMS4zMzMzMzMgMjEuMzMzMzMzLTQ2LjkzMzMzMyAwLTU5LjczMzMzM3ogbS0yNTYgMzI4LjUzMzMzM2wtNDIuNjY2NjY2IDEyLjh2LTQyLjY2NjY2N2wyMDQuOC0yODUuODY2NjY2IDQyLjY2NjY2NiAyOS44NjY2NjYtMjA0LjggMjg1Ljg2NjY2N3oiLz48L3N2Zz4=;" vertex="1" parent="1">
          <mxGeometry x="159.5" y="300" width="60" height="50" as="geometry" />
        </mxCell>
        <mxCell id="4yoZ3IH44hlJ8WYbjBaj-61" value="" style="shape=image;verticalLabelPosition=bottom;labelBackgroundColor=default;verticalAlign=top;aspect=fixed;imageAspect=0;editableCssRules=.*;image=data:image/svg+xml,PHN2ZyB4bWxuczp4bGluaz0iaHR0cDovL3d3dy53My5vcmcvMTk5OS94bGluayIgeG1sbnM9Imh0dHA6Ly93d3cudzMub3JnLzIwMDAvc3ZnIiBoZWlnaHQ9IjIwMCIgd2lkdGg9IjE0Ny44MTc1NDAxNjg3NjIyIiB2ZXJzaW9uPSIxLjEiIHZpZXdCb3g9IjEzMy41ODcxMjc2ODU1NDY4OCAwIDc1Ni44MjU4MDU2NjQwNjI1IDEwMjQiIGNsYXNzPSJpY29uIj48cGF0aCBmaWxsPSIjNjk0OTREIiBkPSJNMTM5LjE4NTgyNyA1MTkuMjYxNTQ4YTQuNjI0NjczIDQuNjI0NjczIDAgMCAxLTIuNzU4NTc3LTAuOTczNjE1IDguMTEzNDYyIDguMTEzNDYyIDAgMCAxLTIuODM5NzEyLTYuMjQ3MzY2VjY2LjQ0OTI1MUMxMzMuNTg3NTM4IDI5Ljc3NjQwNCAxNTYuMzg2MzY2IDAgMTg0LjM3NzgwOCAwSDgzOS40NTg3MDVjMjcuOTkxNDQzIDAgNTAuNzkwMjcgMjkuNzc2NDA0IDUwLjc5MDI3MSA2Ni40NDkyNTF2Mjg1LjQzMTU4M2MwIDM2LjY3Mjg0Ny0yMi43OTg4MjcgNjYuNDQ5MjUxLTUwLjc5MDI3MSA2Ni40NDkyNTFIMjcyLjg5NTY3NUwxNDEuNzAxIDUxOC4yODc5MzNhNC42MjQ2NzMgNC42MjQ2NzMgMCAwIDEtMi41MTUxNzMgMC45NzM2MTV6TTE4NC4zNzc4MDggMTQuNjA0MjMxYy0yMS44MjUyMTIgMC0zOS42NzQ4MjggMjMuMjg1NjM1LTM5LjY3NDgyNyA1MS44NDUwMnY0MzIuODUzMTgxbDEyMy44OTI1Ni05NC41MjE4MjhhNC42MjQ2NzMgNC42MjQ2NzMgMCAwIDEgMi44Mzk3MTEtMC45NzM2MTZIODM5LjQ1ODcwNWMyMS44MjUyMTIgMCAzOS42NzQ4MjgtMjMuMjg1NjM1IDM5LjY3NDgyOC01MS44NDUwMlY2Ni40NDkyNTFDODc5LjIxNDY2OCAzNy44ODk4NjYgODYxLjQ0NjE4NyAxNC42MDQyMzEgODM5LjQ1ODcwNSAxNC42MDQyMzF6Ii8+PHBhdGggZmlsbD0iI0IwRTU1QyIgZD0iTTc1Ni40NTc5OTIgOTI1Ljk4OTM4M0gyODYuODUwODNjLTIwLjUyNzA1OCAwLTE4LjI1NTI4OS02Ljg5NjQ0Mi0xOC4yNTUyODktMjguNTU5Mzg1VjcwNy4wMDcwNTJhMzguNTM4OTQzIDM4LjUzODk0MyAwIDAgMSAzNy40MDMwNTgtMzkuNDMxNDI0SDg0Ny41NzIxNjdhMzguNTM4OTQzIDM4LjUzODk0MyAwIDAgMSAzNy40MDMwNTggMzkuNDMxNDI0djI5Ny4xOTYxMDF6Ii8+PHBhdGggZmlsbD0iIzY5NDk0RCIgZD0iTTc2NS4wNTgyNjIgMTQ1LjM5MzIzM0gyOTUuMDQ1NDI2YTYuNjUzMDM5IDYuNjUzMDM5IDAgMCAxLTUuNTk4Mjg5LTcuMzAyMTE1IDYuNjUzMDM5IDYuNjUzMDM5IDAgMCAxIDUuNTk4Mjg5LTcuMzAyMTE2aDQ3MC4wMTI4MzZhNi42NTMwMzkgNi42NTMwMzkgMCAwIDEgNS41OTgyODggNy4zMDIxMTYgNi42NTMwMzkgNi42NTMwMzkgMCAwIDEtNS41OTgyODggNy4zMDIxMTV6TTY3NS44MTAxODMgMjY2LjkzMjg5SDI5NS4wNDU0MjZhNy41NDU1MTkgNy41NDU1MTkgMCAwIDEgMC0xNC42MDQyMzFoMzgwLjc2NDc1N2E3LjU0NTUxOSA3LjU0NTUxOSAwIDAgMSAwIDE0LjYwNDIzMXpNNzY1LjA1ODI2MiA2OTAuMDQ5OTE3SDI5NS4wNDU0MjZhNy41NDU1MTkgNy41NDU1MTkgMCAwIDEgMC0xNC42MDQyMzFoNDcwLjAxMjgzNmE3LjU0NTUxOSA3LjU0NTUxOSAwIDAgMSAwIDE0LjYwNDIzMXpNNjc1LjgxMDE4MyA4MTEuMzQ2MTY5SDI5NS4wNDU0MjZhNy41NDU1MTkgNy41NDU1MTkgMCAwIDEgMC0xNC42MDQyMzFoMzgwLjc2NDc1N2E3LjU0NTUxOSA3LjU0NTUxOSAwIDAgMSAwIDE0LjYwNDIzMXoiLz48cGF0aCBmaWxsPSIjNjk0OTREIiBkPSJNODg0LjgxMjk1NiAxMDI0YTQuNjI0NjczIDQuNjI0NjczIDAgMCAxLTIuODM5NzExLTAuOTczNjE1TDc2My43NjAxMDggOTMzLjA0ODA5NEgyNTEuNjM4NDA2Yy0yNS42Mzg1MzkgMC00Ni40OTAxMzUtMjcuMjYxMjMxLTQ2LjQ5MDEzNi02MC43Njk4MjhWNjEzLjk0NTY0NmMwLTMzLjUwODU5NyAyMC44NTE1OTctNjAuNzY5ODI4IDQ2LjQ5MDEzNi02MC43Njk4MjhoNTkyLjI4MjcwM2MyNS42Mzg1MzkgMCA0Ni40OTAxMzUgMjcuMjYxMjMxIDQ2LjQ5MDEzNiA2MC43Njk4Mjh2NDAyLjc1MjIzOGE4LjExMzQ2MiA4LjExMzQ2MiAwIDAgMS0yLjgzOTcxMiA2LjMyODUwMSA0LjYyNDY3MyA0LjYyNDY3MyAwIDAgMS0yLjc1ODU3NyAwLjk3MzYxNXpNMjUxLjYzODQwNiA1NjcuOTQyMzE4Yy0xOS40NzIzMDggMC0zNS4yOTM1NTggMjAuNjg5MzI3LTM1LjI5MzU1OSA0Ni4xNjU1OTd2MjU4LjAwODA4MmMwIDI1LjQ3NjI3IDE2LjIyNjkyMyA0Ni4xNjU1OTcgMzUuMjkzNTU5IDQ2LjE2NTU5N2g1MTMuNTgyMTI1YTQuNjI0NjczIDQuNjI0NjczIDAgMCAxIDIuODM5NzExIDAuOTczNjE2bDExMS4xNTQ0MjYgODQuODY2ODA5VjYxMy45NDU2NDZjMC0yNS40NzYyNy0xNi4yMjY5MjMtNDYuMTY1NTk3LTM1LjI5MzU1OS00Ni4xNjU1OTd6Ii8+PC9zdmc+;" vertex="1" parent="1">
          <mxGeometry x="274" y="300" width="50" height="60" as="geometry" />
        </mxCell>
        <mxCell id="4yoZ3IH44hlJ8WYbjBaj-55" value="" style="shape=image;verticalLabelPosition=bottom;labelBackgroundColor=default;verticalAlign=top;aspect=fixed;imageAspect=0;editableCssRules=.*;image=data:image/svg+xml,PHN2ZyB4bWxuczp4bGluaz0iaHR0cDovL3d3dy53My5vcmcvMTk5OS94bGluayIgeG1sbnM9Imh0dHA6Ly93d3cudzMub3JnLzIwMDAvc3ZnIiBoZWlnaHQ9IjE1Ni4yNSIgd2lkdGg9IjE1MCIgZGF0YS1zcG0tYW5jaG9yLWlkPSJhMzEzeC5zZWFyY2hfaW5kZXguMC5pMTQuNDBlNzNhODE1bVpERkciIGRhdGEtZGFya3JlYWRlci1pbmxpbmUtZmlsbD0iIiB2ZXJzaW9uPSIxLjEiIHZpZXdCb3g9IjEyOCAxMjggNzY4IDgwMCIgY2xhc3M9Imljb24iPjxwYXRoIGNsYXNzPSJzZWxlY3RlZCIgZGF0YS1zcG0tYW5jaG9yLWlkPSJhMzEzeC5zZWFyY2hfaW5kZXguMC5pMTYuNDBlNzNhODE1bVpERkciIHN0eWxlPSItLWRhcmtyZWFkZXItaW5saW5lLWZpbGw6IHZhcigtLWRhcmtyZWFkZXItYmFja2dyb3VuZC03MDcwNzAsICM1NDViNWYpOyIgZGF0YS1kYXJrcmVhZGVyLWlubGluZS1maWxsPSIiIGZpbGw9IiM3MDcwNzAiIGQ9Ik03MzYgNzM2SDE2MGMtMTcuNiAwLTMyLTE0LjQtMzItMzJWMTYwYzAtMTcuNiAxNC40LTMyIDMyLTMyaDU3NmMxNy42IDAgMzIgMTQuNCAzMiAzMnY1NDRjMCAxNy42LTE0LjQgMzItMzIgMzJ6IG0tNTQ0LTY0aDUxMlYxOTJIMTkydjQ4MHoiLz48cGF0aCBjbGFzcz0ic2VsZWN0ZWQiIGRhdGEtc3BtLWFuY2hvci1pZD0iYTMxM3guc2VhcmNoX2luZGV4LjAuaTE1LjQwZTczYTgxNW1aREZHIiBzdHlsZT0iLS1kYXJrcmVhZGVyLWlubGluZS1maWxsOiB2YXIoLS1kYXJrcmVhZGVyLWJhY2tncm91bmQtNzA3MDcwLCAjNTQ1YjVmKTsiIGRhdGEtZGFya3JlYWRlci1pbmxpbmUtZmlsbD0iIiBmaWxsPSIjNzA3MDcwIiBkPSJNMzc0LjQgNTkybDE2LTUyLjhoMTEzLjZsMTYgNTIuOEg2MjRsLTEyMS42LTMyMGgtMTA4LjhMMjcyIDU5MmgxMDIuNHogbTEwNS42LTEyOGgtNjRsMzItMTEyIDMyIDExMnoiLz48cGF0aCBjbGFzcz0ic2VsZWN0ZWQiIGRhdGEtc3BtLWFuY2hvci1pZD0iYTMxM3guc2VhcmNoX2luZGV4LjAuaTE4LjQwZTczYTgxNW1aREZHIiBzdHlsZT0iLS1kYXJrcmVhZGVyLWlubGluZS1maWxsOiB2YXIoLS1kYXJrcmVhZGVyLWJhY2tncm91bmQtNzA3MDcwLCAjNTQ1YjVmKTsiIGRhdGEtZGFya3JlYWRlci1pbmxpbmUtZmlsbD0iIiBmaWxsPSIjNzA3MDcwIiBkPSJNODY0IDkyOEgxNjBjLTE3LjYgMC0zMi0xNC40LTMyLTMyVjcwNGMwLTE3LjYgMTQuNC0zMiAzMi0zMnMzMiAxNC40IDMyIDMydjE2MGg2NDBWMjI0YzAtMTcuNiAxNC40LTMyIDMyLTMyczMyIDE0LjQgMzIgMzJ2NjcyYzAgMTcuNi0xNC40IDMyLTMyIDMyeiIvPjxwYXRoIGNsYXNzPSJzZWxlY3RlZCIgZGF0YS1zcG0tYW5jaG9yLWlkPSJhMzEzeC5zZWFyY2hfaW5kZXguMC5pMTcuNDBlNzNhODE1bVpERkciIHN0eWxlPSItLWRhcmtyZWFkZXItaW5saW5lLWZpbGw6IHZhcigtLWRhcmtyZWFkZXItYmFja2dyb3VuZC03MDcwNzAsICM1NDViNWYpOyIgZGF0YS1kYXJrcmVhZGVyLWlubGluZS1maWxsPSIiIGZpbGw9IiM3MDcwNzAiIGQ9Ik03NjggODMySDI1NmMtMTcuNiAwLTMyLTE0LjQtMzItMzJzMTQuNC0zMiAzMi0zMmg1MTJjMTcuNiAwIDMyIDE0LjQgMzIgMzJzLTE0LjQgMzItMzIgMzJ6Ii8+PC9zdmc+;" vertex="1" parent="1">
          <mxGeometry x="131.5" y="206.5" width="50" height="50" as="geometry" />
        </mxCell>
        <mxCell id="4yoZ3IH44hlJ8WYbjBaj-62" value="Dictionary" style="text;html=1;align=center;verticalAlign=middle;whiteSpace=wrap;rounded=0;fontStyle=1;fontColor=#292929;fontSize=16;" vertex="1" parent="1">
          <mxGeometry x="126.5" y="262.5" width="60" height="30" as="geometry" />
        </mxCell>
        <mxCell id="4yoZ3IH44hlJ8WYbjBaj-65" value="Translation" style="text;html=1;align=center;verticalAlign=middle;whiteSpace=wrap;rounded=0;fontStyle=1;fontColor=#292929;fontSize=16;" vertex="1" parent="1">
          <mxGeometry x="220.5" y="262.5" width="60" height="30" as="geometry" />
        </mxCell>
        <mxCell id="4yoZ3IH44hlJ8WYbjBaj-66" value="QA" style="text;html=1;align=center;verticalAlign=middle;whiteSpace=wrap;rounded=0;fontStyle=1;fontColor=#292929;fontSize=16;" vertex="1" parent="1">
          <mxGeometry x="310.5" y="262.5" width="60" height="30" as="geometry" />
        </mxCell>
        <mxCell id="4yoZ3IH44hlJ8WYbjBaj-68" value="Continue Writing" style="text;html=1;align=center;verticalAlign=middle;whiteSpace=wrap;rounded=0;fontStyle=1;fontColor=#292929;fontSize=16;" vertex="1" parent="1">
          <mxGeometry x="155.5" y="361" width="60" height="30" as="geometry" />
        </mxCell>
        <mxCell id="4yoZ3IH44hlJ8WYbjBaj-69" value="Dialogue" style="text;html=1;align=center;verticalAlign=middle;whiteSpace=wrap;rounded=0;fontStyle=1;fontColor=#292929;fontSize=16;" vertex="1" parent="1">
          <mxGeometry x="271" y="360" width="60" height="30" as="geometry" />
        </mxCell>
        <mxCell id="4yoZ3IH44hlJ8WYbjBaj-112" value="Advertising-Specified" style="text;html=1;align=center;verticalAlign=middle;whiteSpace=wrap;rounded=0;fontStyle=1;fontColor=#292929;fontSize=16;" vertex="1" parent="1">
          <mxGeometry x="134.5" y="572" width="199" height="30" as="geometry" />
        </mxCell>
        <mxCell id="4yoZ3IH44hlJ8WYbjBaj-120" value="" style="shape=image;verticalLabelPosition=bottom;labelBackgroundColor=default;verticalAlign=top;aspect=fixed;imageAspect=0;editableCssRules=.*;image=data:image/svg+xml,PHN2ZyB4bWxuczp4bGluaz0iaHR0cDovL3d3dy53My5vcmcvMTk5OS94bGluayIgeG1sbnM9Imh0dHA6Ly93d3cudzMub3JnLzIwMDAvc3ZnIiBoZWlnaHQ9IjE2Ni42NjY2NzQ2MTM5NTI2NCIgd2lkdGg9IjEzMy4zMzMzMjUzODYwNDczNiIgdmVyc2lvbj0iMS4xIiB2aWV3Qm94PSIxNzAuNzk0NjYyNDc1NTg1OTQgODUuMzMzMzM1ODc2NDY0ODQgNjgyLjY2NjYyNTk3NjU2MjUgODUzLjMzMzM3NDAyMzQzNzUiIGNsYXNzPSJpY29uIj48cGF0aCBmaWxsPSIjMTI5NmRiIiBkPSJNNzU3LjQ2MTMzMyA1OTcuMzMzMzMzYTk2IDk2IDAgMCAxIDk2IDk2djM4LjYxMzMzNGExNjAgMTYwIDAgMCAxLTU1Ljc2NTMzMyAxMjEuNDI5MzMzQzczMC44OCA5MTAuNzIgNjM1LjMwNjY2NyA5MzguNjY2NjY3IDUxMiA5MzguNjY2NjY3Yy0xMjMuMzA2NjY3IDAtMjE4Ljc5NDY2Ny0yNy45ODkzMzMtMjg1LjQ4MjY2Ny04NS4zMzMzMzRhMTYwIDE2MCAwIDAgMS01NS43MjI2NjYtMTIxLjMwMTMzM3YtMzguNzQxMzMzQTk2IDk2IDAgMCAxIDI2Ni43OTQ2NjcgNTk3LjMzMzMzM2g0OTAuNjY2NjY2eiBtMCA2NGgtNDkwLjY2NjY2NmEzMiAzMiAwIDAgMC0zMiAzMnYzOC43NDEzMzRjMCAyNy45NDY2NjcgMTIuMjAyNjY3IDU0LjUyOCAzMy40NTA2NjYgNzIuNzg5MzMzQzMyMS45MiA4NTAuOTg2NjY3IDQwMi43NzMzMzMgODc0Ljc1MiA1MTIgODc0Ljc1MmMxMDkuMjI2NjY3IDAgMTkwLjIwOC0yMy43NjUzMzMgMjQ0LjAxMDY2Ny02OS45NzMzMzNhOTYgOTYgMCAwIDAgMzMuNDUwNjY2LTcyLjc4OTMzNHYtMzguNjU2YTMyIDMyIDAgMCAwLTMyLTMyek01MDcuNjQ4IDg1LjY3NDY2N0w1MTIgODUuMzMzMzMzYTMyIDMyIDAgMCAxIDMxLjcwMTMzMyAyNy42NDhsMC4yOTg2NjcgNC4zNTJWMTQ5LjMzMzMzM2gxNDkuMzMzMzMzYTk2IDk2IDAgMCAxIDk2IDk2djE5Mi4yMTMzMzRhOTYgOTYgMCAwIDEtOTYgOTZoLTM2Mi42NjY2NjZhOTYgOTYgMCAwIDEtOTYtOTZWMjQ1LjMzMzMzM0E5NiA5NiAwIDAgMSAzMzAuNjY2NjY3IDE0OS4zMzMzMzNoMTQ5LjMzMzMzM3YtMzEuOTU3MzMzYTMyIDMyIDAgMCAxIDI3LjY0OC0zMS43MDEzMzNMNTEyIDg1LjMzMzMzM2wtNC4zNTIgMC4yOTg2Njd6TTY5My4zMzMzMzMgMjEzLjMzMzMzM2gtMzYyLjY2NjY2NmEzMiAzMiAwIDAgMC0zMiAzMnYxOTIuMjEzMzM0YzAgMTcuNjY0IDE0LjMzNiAzMiAzMiAzMmgzNjIuNjY2NjY2YTMyIDMyIDAgMCAwIDMyLTMyVjI0NS4zMzMzMzNhMzIgMzIgMCAwIDAtMzItMzJ6IG0tMjc3LjMzMzMzMyA2NGE1My4zMzMzMzMgNTMuMzMzMzMzIDAgMSAxIDAgMTA2LjY2NjY2NyA1My4zMzMzMzMgNTMuMzMzMzMzIDAgMCAxIDAtMTA2LjY2NjY2N3ogbTE5MS42NTg2NjcgMGE1My4zMzMzMzMgNTMuMzMzMzMzIDAgMSAxIDAgMTA2LjYyNCA1My4zMzMzMzMgNTMuMzMzMzMzIDAgMCAxIDAtMTA2LjYyNHoiLz48L3N2Zz4=;" vertex="1" parent="1">
          <mxGeometry x="658" y="364.89" width="63" height="79.11" as="geometry" />
        </mxCell>
        <mxCell id="4yoZ3IH44hlJ8WYbjBaj-124" value="" style="shape=flexArrow;endArrow=classic;html=1;rounded=0;fillColor=light-dark(#bdd0e9, #1d293b);strokeColor=none;" edge="1" parent="1">
          <mxGeometry width="50" height="50" relative="1" as="geometry">
            <mxPoint x="422.5" y="380" as="sourcePoint" />
            <mxPoint x="490" y="380" as="targetPoint" />
            <Array as="points">
              <mxPoint x="432.5" y="380" />
            </Array>
          </mxGeometry>
        </mxCell>
        <mxCell id="4yoZ3IH44hlJ8WYbjBaj-114" value="" style="shape=image;verticalLabelPosition=bottom;labelBackgroundColor=default;verticalAlign=top;aspect=fixed;imageAspect=0;editableCssRules=.*;image=data:image/svg+xml,PHN2ZyB4bWxuczp4bGluaz0iaHR0cDovL3d3dy53My5vcmcvMTk5OS94bGluayIgeG1sbnM9Imh0dHA6Ly93d3cudzMub3JnLzIwMDAvc3ZnIiBoZWlnaHQ9IjE5Mi4xMDUyNTc1MTExMzg5MiIgd2lkdGg9IjE3My42ODMwMjM0NTI3NTg4IiB2ZXJzaW9uPSIxLjEiIHZpZXdCb3g9IjgwLjg1NDk2NTIwOTk2MDk0IDI2Ljk0NzM2ODYyMTgyNjE3MiA4ODkuMjU3MDgwMDc4MTI1IDk4My41Nzg5MTg0NTcwMzEyIiBjbGFzcz0iaWNvbiI+PHBhdGggZmlsbD0iIzZBNkE2QSIgZD0iTTcxNi4wNTg5NDcgMTg3Ljk5ODMxNmMxMTAuNzEzMjYzLTkuNTEyNDIxIDE5Ni41MjcxNTggMTkuMTQ2MTA1IDIzNC40NDIxMDYgODQuODg0MjEgMzguNTA3Nzg5IDY2Ljg1NjQyMSAxOC40MDUwNTMgMTU2LjQ1NjQyMS00My44MDI5NDggMjQ1Ljg1NDMxNiA2Mi4yMDggODkuNDkyMjExIDgyLjMyNDIxMSAxNzguOTk3ODk1IDQzLjgwMjk0OCAyNDUuODQwODQyLTM3LjcxMjg0MiA2NS4zNDczNjgtMTIyLjkyMDQyMSA5NC4xMTM2ODQtMjMzLjI0Mjk0OCA4NC45OTItMC40MDQyMTEgMC0wLjgwODQyMS0wLjEwNzc4OS0xLjEwNDg0Mi0wLjEwNzc4OUM2NjguOTU0OTQ3IDk1MC4zOTMyNjMgNjAxLjIyMjczNyAxMDEwLjUyNjMxNiA1MjUuNjIxODk1IDEwMTAuNTI2MzE2Yy03Ny4xMjMzNjggMC0xNDQuMzMwMTA1LTYyLjI0ODQyMS0xOTAuNjUyNjMyLTE2MC45NTY2MzItMTA4LjQwOTI2MyA5LjIxNi0xOTUuODI2NTI2LTE4LjA1NDczNy0yMzQuNDQyMTA1LTg0Ljg4NDIxQzYyLjYzOTE1OCA2OTguODM5NTc5IDgwLjg0MjEwNSA2MTAuMDM0NTI2IDE0NC4zNTcwNTMgNTE4LjczNjg0MmMtNjMuNjA5MjYzLTkxLjQwNTQ3NC04MS43MTc4OTUtMTgwLjE5NzA1My00My44OTcyNjQtMjQ1Ljg0MDg0MiAzOC40OTQzMTYtNjYuODU2NDIxIDEyNi4wMTkzNjgtOTQuMTEzNjg0IDIzNC40NDIxMDYtODQuODg0MjExQzM4MS4wODk2ODQgODkuMTY4ODQyIDQ0OC40MDQyMTEgMjYuOTQ3MzY4IDUyNS41Mjc1NzkgMjYuOTQ3MzY4Yzc1LjcwODYzMiAwIDE0My4zMTk1NzkgNjAuMjI3MzY4IDE5MC41MTc4OTUgMTYxLjA1MDk0OHpNNjc4LjEzMDUyNiAyMDcuNzY0MjExQzYzNy4yMzc4OTUgMTE5LjQ1NzY4NCA1ODEuODM0MTA1IDY5LjczOTc4OSA1MjUuNTI3NTc5IDY5LjczOTc4OWMtNTMuMTEzMjYzIDAtMTA1LjUyNTg5NSA0NC4wMDUwNTMtMTQ1LjgzOTE1OCAxMjMuODc3MDUzIDg1LjUxNzQ3NCAxNC4zMzYgMTgwLjczNiA0OS4wMDM3ODkgMjczLjg1MjYzMiAxMDIuOTM4OTQ3IDkzLjExNjYzMiA1My44OTQ3MzcgMTcwLjczODUyNiAxMTkuMTQ3Nzg5IDIyNS44NDU4OTQgMTg2LjIwNjMxNiA0OC44MTUxNTgtNzQuOTY3NTc5IDYwLjcxMjQyMS0xNDIuNDE2ODQyIDM0LjExNTM2OS0xODguNTIzNzg5LTI5LjcwOTQ3NC01MS42MDQyMTEtMTA2LjgzMjg0Mi03NC42NTc2ODQtMjExLjc1MjQyMS02MS43MzY0MjFhMjEuNDM2NjMyIDIxLjQzNjYzMiAwIDAgMS0yMy43OTQ1MjctMTguNjQ3NTc5IDMxLjM5MzY4NCAzMS4zOTM2ODQgMCAwIDEgMC4xODg2MzItNi4xMDM1Nzl6TTE3OS4wNjUyNjMgNDkzLjg3Nzg5NWEyMS40MjMxNTggMjEuNDIzMTU4IDAgMCAxIDExLjY5NTE1OCAzMy42ODQyMWMtNjQuMjAyMTA1IDg0Ljg4NDIxMS04My4yIDE2My44NTM0NzQtNTMuMzAxODk1IDIxNS42NzMyNjMgMjYuNTAyNzM3IDQ2LjA5MzQ3NCA5MC44MTI2MzIgNjkuNTUxMTU4IDE4MC4wMzUzNjkgNjQuNjMzMjY0QzI4Ny4wNzAzMTYgNzI2LjUwMTA1MyAyNjkuNDczNjg0IDYyNi40NzI0MjEgMjY5LjQ3MzY4NCA1MTguNzM2ODQyYzAtMTA3LjcyMjEwNSAxNy41OTY2MzItMjA3Ljc1MDczNyA0OC4wMDY3MzctMjg5LjExODMxNi04OS4yMjI3MzctNC45MTc4OTUtMTUzLjQyNDg0MiAxOC41MjYzMTYtMTgwLjAzNTM2OCA2NC42MzMyNjMtMjcuOTA0IDQ4LjUwNTI2My0xMy4yMDQyMTEgMTIwLjY3MDMxNiA0MS42MDY3MzYgMTk5LjYzOTU3OXogbTE4Mi40MzM2ODQgMzA5LjQ5MDUyNmM4NC41MjA0MjEtMTIuMzI4NDIxIDE3OS41MzY4NDItNDYuNjk5Nzg5IDI3MC42NTkzNjktOTkuNDM1Nzg5IDkxLjEwOTA1My01Mi43MDkwNTMgMTY4LjQyMTA1My0xMTguMDQyOTQ3IDIyMS4zNDU2ODQtMTg1LjE5NTc5LTUyLjkxMTE1OC02Ny4xNTI4NDItMTMwLjEyODg0Mi0xMzIuMzkyNDIxLTIyMS4zNDU2ODQtMTg1LjIwOTI2My05MS4yMTY4NDItNTIuODE2ODQyLTE4Ni4xMzg5NDctODcuMDkzODk1LTI3MC42NTkzNjktOTkuNDIyMzE2LTMxLjU5NTc4OSA3OS40ODEyNjMtNDkuNDA4IDE3OS4wOTIyMTEtNDkuNDA4IDI4NC42MzE1NzlzMTcuODEyMjExIDIwNS4xNTAzMTYgNDkuNDA4IDI4NC42MzE1Nzl6IG0xOC4xMDg2MzIgNDAuNDg4NDIxYzQwLjQwNzU3OSA3OS44NzIgOTIuODIwMjExIDEyMy44NzcwNTMgMTQ1LjkyIDEyMy44NzcwNTMgNTcuODE1NTc5IDAgMTE0LjgzNjIxMS01Mi40MTI2MzIgMTU2LjAyNTI2My0xNDUuNDIxNDc0YTIxLjQyMzE1OCAyMS40MjMxNTggMCAwIDEgMjUuNjEzNDc0LTExLjgyOTg5NWMzLjkwNzM2OC0yLjYxMzg5NSA4LjYwOTY4NC0zLjkwNzM2OCAxMy42MDg0MjEtMy41MDMxNTggOTUuNjA5MjYzIDcuOTA5MDUzIDE2NC45MTc4OTUtMTUuNDQwODQyIDE5Mi44MzUzNjgtNjMuNzQ0IDI2LjUwMjczNy00Ni4xMDY5NDcgMTQuNjk5Nzg5LTExMy41NTYyMTEtMzQuMTE1MzY4LTE4OC41MjM3ODktNTUuMTA3MzY4IDY3LjA1ODUyNi0xMzIuNzE1Nzg5IDEzMi4yOTgxMDUtMjI1Ljg0NTg5NSAxODYuMjA2MzE2LTkzLjIxMDk0NyA1My45MzUxNTgtMTg4LjUyMzc4OSA4OC42MDI5NDctMjc0LjA1NDczNyAxMDIuOTM4OTQ3eiBtMTY3LjIzNTM2OC0yMzkuNjI5NDc0Yy00Ny4xMTc0NzQgMC04NS4zMjg4NDItMzguMjkyMjExLTg1LjMyODg0Mi04NS40OTA1MjYgMC00Ny4yMTE3ODkgMzguMjExMzY4LTg1LjQ5MDUyNiA4NS4zMjg4NDItODUuNDkwNTI2IDQ3LjEwNCAwIDg1LjMxNTM2OCAzOC4yNzg3MzcgODUuMzE1MzY5IDg1LjQ5MDUyNiAwIDQ3LjE5ODMxNi0zOC4yMTEzNjggODUuNDkwNTI2LTg1LjMxNTM2OSA4NS40OTA1MjZ6Ii8+PHBhdGggZmlsbD0iIzQyQjBGMCIgZD0iTTU0Ni44Mjk0NzQgNTYxLjUyOTI2M2MyMy41OTI0MjEgMCA0Mi43MTE1NzktMTkuMTMyNjMyIDQyLjcxMTU3OS00Mi43OTI0MjFhNDIuNzM4NTI2IDQyLjczODUyNiAwIDAgMC00Mi43MTE1NzktNDIuNzkyNDIxIDQyLjczODUyNiA0Mi43Mzg1MjYgMCAwIDAtNDIuNzExNTc5IDQyLjc5MjQyMSA0Mi43MjUwNTMgNDIuNzI1MDUzIDAgMCAwIDQyLjcxMTU3OSA0Mi43OTI0MjF6Ii8+PC9zdmc+;" vertex="1" parent="1">
          <mxGeometry x="541.5" y="183.40999999999997" width="54" height="59.59" as="geometry" />
        </mxCell>
        <mxCell id="4yoZ3IH44hlJ8WYbjBaj-115" value="Understanding&lt;br&gt;Optimization" style="text;html=1;align=center;verticalAlign=middle;whiteSpace=wrap;rounded=0;fontStyle=1;fontColor=#292929;fontSize=16;" vertex="1" parent="1">
          <mxGeometry x="469" y="256.5" width="199" height="30" as="geometry" />
        </mxCell>
        <mxCell id="4yoZ3IH44hlJ8WYbjBaj-116" value="" style="shape=image;verticalLabelPosition=bottom;labelBackgroundColor=default;verticalAlign=top;aspect=fixed;imageAspect=0;editableCssRules=.*;image=data:image/svg+xml,PHN2ZyB4bWxuczp4bGluaz0iaHR0cDovL3d3dy53My5vcmcvMTk5OS94bGluayIgeG1sbnM9Imh0dHA6Ly93d3cudzMub3JnLzIwMDAvc3ZnIiBoZWlnaHQ9IjE0OS45OTU1NTM0OTM0OTk3NiIgd2lkdGg9IjE1MC4wMDU4NzcwMTc5NzQ4NSIgdmVyc2lvbj0iMS4xIiB2aWV3Qm94PSIxMjcuOTI0MDc5ODk1MDE5NTMgMTI4IDc2OC4wMzAwOTAzMzIwMzEyIDc2Ny45NzcyMzM4ODY3MTg4IiBjbGFzcz0iaWNvbiI+PHBhdGggZmlsbD0iIzcwNzA3MCIgZD0iTTg3OC43ODQgNTE4LjRjMTMuNDQgMTUuMTY4IDE5LjAwOCAyOS40NCAxNi42NCA0Mi41Ni0yLjMwNCAxMy4xODQtOS45MiAyNi41Ni0yMi43ODQgNDBsLTI3OC4zMzYgMjgxLjM0NGE1Mi4wMzIgNTIuMDMyIDAgMCAxLTE2LjY0IDkuNjY0IDY1Ljc5MiA2NS43OTIgMCAwIDEtMzkuNTUyIDEuNzkyIDM0Ljc1MiAzNC43NTIgMCAwIDEtMTUuODA4LTguODMyIDI0MjcxNC45NDQgMjQyNzE0Ljk0NCAwIDAgMS0xODcuMDA4LTE4OC45OTJMMjY1LjkyIDYyNi40OTZjLTIyLjc4NC0yMi44NDgtNDMuMTM2LTQzLjM5Mi02MC45OTItNjEuNTY4YTMwNjUuMjE2IDMwNjUuMjE2IDAgMCAwLTQzLjkwNC00My45NjggMjI3LjA3MiAyMjcuMDcyIDAgMCAxLTE3Ljk4NC0xOC40MzIgNzk5Ljc0NCA3OTkuNzQ0IDAgMCAxLTkuMjE2LTEyLjggMzIgMzIgMCAwIDEtNS43Ni0yMS41MDR2LTUxLjg0YzAtMTMuNTA0IDAuMTkyLTI4LjYwOCAwLjQ0OC00NS4zMTIgMC4zMi0xNi42NCAwLjQ0OC0zMy41MzYgMC40NDgtNTAuNTYgMC42NC00MC40NDggMS4yMTYtODUuMjQ4IDEuNzkyLTEzNC40NjQgMS4xNTItNy42OCAyLjg4LTE0LjUyOCA1LjI0OC0yMC42NzJhNTUuNjE2IDU1LjYxNiAwIDAgMSAxMy4xODQtMTguOTQ0YzUuODI0LTYuNCAxMi4xNi0xMS4xMzYgMTguODgtMTQuMDhBNDcuNDg4IDQ3LjQ4OCAwIDAgMSAxODYuODggMTI4aDI4Mi42ODhjMS4yMTYgMCAzLjg0IDAuMTI4IDcuOTM2IDAuNDQ4IDQuMDk2IDAuMjU2IDcuMDQgMC43MDQgOC43NjggMS4yOGE0Ni4xNDQgNDYuMTQ0IDAgMCAxIDE4LjQzMiAxMS40NTZMODc4Ljc4NCA1MTguNHpNMjYzLjI5NiAzNDcuNzEyYzIzLjQyNCAwIDQzLjItOC4xOTIgNTkuMjY0LTI0LjU3NiAxNi4xMjgtMTYuNDQ4IDI0LjE5Mi0zNi4zNTIgMjQuMTkyLTU5Ljg0IDAtMjMuNDI0LTguMDY0LTQzLjMyOC0yNC4xOTItNTkuNzc2YTc5LjgwOCA3OS44MDggMCAwIDAtNTkuMjY0LTI0LjU3NmMtMTEuNzEyIDAtMjIuNTI4IDIuMTc2LTMyLjQ0OCA2LjU5MmE4Ni4wMTYgODYuMDE2IDAgMCAwLTQ0LjM1MiA0NC44Yy00LjQxNiAxMC4yNC02LjU5MiAyMS4yNDgtNi41OTIgMzIuOTZhODQuNjcyIDg0LjY3MiAwIDAgMCA1MC45NDQgNzcuODI0YzkuOTIgNC40MTYgMjAuNzM2IDYuNTkyIDMyLjQ0OCA2LjU5MnoiLz48L3N2Zz4=;" vertex="1" parent="1">
          <mxGeometry x="671" y="190.37" width="50" height="50" as="geometry" />
        </mxCell>
        <mxCell id="4yoZ3IH44hlJ8WYbjBaj-117" value="Advertising&lt;div&gt;Task&lt;/div&gt;" style="text;html=1;align=center;verticalAlign=middle;whiteSpace=wrap;rounded=0;fontStyle=1;fontColor=#292929;fontSize=16;" vertex="1" parent="1">
          <mxGeometry x="631.5" y="256.5" width="129" height="30" as="geometry" />
        </mxCell>
        <mxCell id="4yoZ3IH44hlJ8WYbjBaj-118" value="" style="shape=image;verticalLabelPosition=bottom;labelBackgroundColor=default;verticalAlign=top;aspect=fixed;imageAspect=0;editableCssRules=.*;image=data:image/svg+xml,PHN2ZyB4bWxuczp4bGluaz0iaHR0cDovL3d3dy53My5vcmcvMTk5OS94bGluayIgeG1sbnM9Imh0dHA6Ly93d3cudzMub3JnLzIwMDAvc3ZnIiBoZWlnaHQ9IjE5OS4xOTk5OTgzNzg3NTM2NiIgd2lkdGg9IjE3NC43OTk5Nzg3MzMwNjI3NCIgdmVyc2lvbj0iMS4xIiB2aWV3Qm94PSI2NC41MTIwMDEwMzc1OTc2NiAyLjA0ODAwMDA5NzI3NDc4MDMgODk0Ljk3NTg5MTExMzI4MTIgMTAxOS45MDM5OTE2OTkyMTg4IiBjbGFzcz0iaWNvbiI+PHBhdGggZmlsbD0iIzU1NTU1NSIgZD0iTTUxMiA0NzYuMTZjMTMxLjA3MiAwIDIzNi41NDQtMTA2LjQ5NiAyMzYuNTQ0LTIzNi41NDRTNjQzLjA3MiAyLjA0OCA1MTIgMi4wNDggMjc1LjQ1NiAxMDguNTQ0IDI3NS40NTYgMjM5LjYxNiAzODAuOTI4IDQ3Ni4xNiA1MTIgNDc2LjE2eiBtMC00MTIuNjcyYzk3LjI4IDAgMTc1LjEwNCA3OC44NDggMTc1LjEwNCAxNzUuMTA0UzYwOS4yOCA0MTQuNzIgNTEyIDQxNC43MnMtMTc1LjEwNC03OC44NDgtMTc1LjEwNC0xNzUuMTA0UzQxNC43MiA2My40ODggNTEyIDYzLjQ4OHpNNTEyIDU0Mi43MkMyNjUuMjE2IDU0Mi43MiA2NC41MTIgNzQzLjQyNCA2NC41MTIgOTkxLjIzMmMwIDE3LjQwOCAxMy4zMTIgMzAuNzIgMzAuNzIgMzAuNzJzMzAuNzItMTMuMzEyIDMwLjcyLTMwLjcyQzEyNS45NTIgNzc4LjI0IDI5OS4wMDggNjA0LjE2IDUxMiA2MDQuMTZjMjEyLjk5MiAwIDM4Ni4wNDggMTc0LjA4IDM4Ni4wNDggMzg3LjA3MiAwIDE3LjQwOCAxMy4zMTIgMzAuNzIgMzAuNzIgMzAuNzJzMzAuNzItMTMuMzEyIDMwLjcyLTMwLjcyQzk1OS40ODggNzQzLjQyNCA3NTguNzg0IDU0Mi43MiA1MTIgNTQyLjcyeiIvPjwvc3ZnPg==;" vertex="1" parent="1">
          <mxGeometry x="786.94" y="186.04999999999995" width="51.56" height="58.63" as="geometry" />
        </mxCell>
        <mxCell id="4yoZ3IH44hlJ8WYbjBaj-119" value="Human&lt;br&gt;Feedback" style="text;html=1;align=center;verticalAlign=middle;whiteSpace=wrap;rounded=0;fontStyle=1;fontColor=#292929;fontSize=16;" vertex="1" parent="1">
          <mxGeometry x="748.22" y="256.5" width="129" height="30" as="geometry" />
        </mxCell>
        <mxCell id="4yoZ3IH44hlJ8WYbjBaj-125" style="edgeStyle=orthogonalEdgeStyle;rounded=0;orthogonalLoop=1;jettySize=auto;html=1;exitX=1;exitY=0.75;exitDx=0;exitDy=0;entryX=0.884;entryY=0.755;entryDx=0;entryDy=0;entryPerimeter=0;" edge="1" parent="1" source="4yoZ3IH44hlJ8WYbjBaj-114" target="4yoZ3IH44hlJ8WYbjBaj-114">
          <mxGeometry relative="1" as="geometry" />
        </mxCell>
        <mxCell id="4yoZ3IH44hlJ8WYbjBaj-130" value="" style="shape=flexArrow;endArrow=classic;html=1;rounded=0;fillColor=light-dark(#bdd0e9, #1d293b);strokeColor=none;entryX=0.383;entryY=0.556;entryDx=0;entryDy=0;entryPerimeter=0;" edge="1" parent="1">
          <mxGeometry width="50" height="50" relative="1" as="geometry">
            <mxPoint x="689.5" y="309.76" as="sourcePoint" />
            <mxPoint x="689.23" y="360" as="targetPoint" />
            <Array as="points">
              <mxPoint x="689" y="309.76" />
            </Array>
          </mxGeometry>
        </mxCell>
        <mxCell id="4yoZ3IH44hlJ8WYbjBaj-131" value="" style="curved=1;endArrow=classic;html=1;rounded=0;" edge="1" parent="1">
          <mxGeometry width="50" height="50" relative="1" as="geometry">
            <mxPoint x="589" y="460" as="sourcePoint" />
            <mxPoint x="639" y="410" as="targetPoint" />
            <Array as="points">
              <mxPoint x="589" y="410" />
            </Array>
          </mxGeometry>
        </mxCell>
        <mxCell id="4yoZ3IH44hlJ8WYbjBaj-134" value="" style="curved=1;endArrow=classic;html=1;rounded=0;" edge="1" parent="1">
          <mxGeometry width="50" height="50" relative="1" as="geometry">
            <mxPoint x="738" y="410" as="sourcePoint" />
            <mxPoint x="788" y="460" as="targetPoint" />
            <Array as="points">
              <mxPoint x="788" y="410" />
            </Array>
          </mxGeometry>
        </mxCell>
        <mxCell id="4yoZ3IH44hlJ8WYbjBaj-135" value="" style="group" vertex="1" connectable="0" parent="1">
          <mxGeometry x="494" y="464.5" width="390" height="107.5" as="geometry" />
        </mxCell>
        <mxCell id="4yoZ3IH44hlJ8WYbjBaj-128" value="" style="ellipse;whiteSpace=wrap;html=1;fillColor=none;" vertex="1" parent="4yoZ3IH44hlJ8WYbjBaj-135">
          <mxGeometry width="390" height="107.5" as="geometry" />
        </mxCell>
        <mxCell id="4yoZ3IH44hlJ8WYbjBaj-121" value="CPT" style="ellipse;whiteSpace=wrap;html=1;dashed=1;fontSize=16;fontStyle=1;fillColor=none;" vertex="1" parent="4yoZ3IH44hlJ8WYbjBaj-135">
          <mxGeometry x="32" y="25" width="86" height="55" as="geometry" />
        </mxCell>
        <mxCell id="4yoZ3IH44hlJ8WYbjBaj-122" value="SFT" style="ellipse;whiteSpace=wrap;html=1;dashed=1;fontSize=16;fontStyle=1;fillColor=none;" vertex="1" parent="4yoZ3IH44hlJ8WYbjBaj-135">
          <mxGeometry x="152" y="25" width="86" height="55" as="geometry" />
        </mxCell>
        <mxCell id="4yoZ3IH44hlJ8WYbjBaj-123" value="RLHF" style="ellipse;whiteSpace=wrap;html=1;dashed=1;fontSize=16;fontStyle=1;fillColor=none;" vertex="1" parent="4yoZ3IH44hlJ8WYbjBaj-135">
          <mxGeometry x="273" y="25" width="86" height="55" as="geometry" />
        </mxCell>
        <mxCell id="4yoZ3IH44hlJ8WYbjBaj-138" value="" style="shape=image;verticalLabelPosition=bottom;labelBackgroundColor=default;verticalAlign=top;aspect=fixed;imageAspect=0;editableCssRules=.*;image=data:image/svg+xml,PHN2ZyB4bWxuczp4bGluaz0iaHR0cDovL3d3dy53My5vcmcvMTk5OS94bGluayIgeG1sbnM9Imh0dHA6Ly93d3cudzMub3JnLzIwMDAvc3ZnIiBoZWlnaHQ9IjEzMS4wODM1OTU3NTI3MTYwNiIgd2lkdGg9IjEzNy41MTM2NzMzMDU1MTE0NyIgdmVyc2lvbj0iMS4xIiB2aWV3Qm94PSIxNTkuOTY0OTY1ODIwMzEyNSAxNzYuNDI3MDAxOTUzMTI1IDcwNC4wNzAwMDczMjQyMTg4IDY3MS4xNDgwMTAyNTM5MDYyIiBjbGFzcz0iaWNvbiI+PHBhdGggZmlsbD0iIzcwNzA3MCIgZD0iTTg2NC4wMzUgMzY4LjQ0NFYyMDguNDI3YzAtMTcuNjczLTE0LjMyNy0zMi0zMi0zMmgtNjQwLjA3Yy0xNy42NzMgMC0zMiAxNC4zMjctMzIgMzJ2MTYwLjAxN2MwIDE2LjAyMyAxMS43NzYgMjkuMjk1IDI3LjE0NiAzMS42MzQtMTUuMzcgMi4zMzktMjcuMTQ2IDE1LjYxMS0yNy4xNDYgMzEuNjM0djE2MC4wMTdjMCAxNi45MiAxMy4xMzUgMzAuNzY1IDI5Ljc2NCAzMS45MTQtMTYuNjI5IDEuMTQ5LTI5Ljc2NCAxNC45OTMtMjkuNzY0IDMxLjkxNHYxNjAuMDE4YzAgMTcuNjczIDE0LjMyNyAzMiAzMiAzMmg2NDAuMDdjMTcuNjczIDAgMzItMTQuMzI3IDMyLTMydi0xNjAuMDJjMC0xNi45Mi0xMy4xMzYtMzAuNzY1LTI5Ljc2NC0zMS45MTQgMTYuNjI5LTEuMTQ5IDI5Ljc2NC0xNC45OTMgMjkuNzY0LTMxLjkxNFY0MzEuNzExYzAtMTYuMDIzLTExLjc3Ny0yOS4yOTUtMjcuMTQ2LTMxLjYzNCAxNS4zNjktMi4zMzggMjcuMTQ2LTE1LjYxMSAyNy4xNDYtMzEuNjMzeiBtLTY0MC4wNy0xMjguMDE3aDU3Ni4wN3Y5Ni4wMTdoLTU3Ni4wN3YtOTYuMDE3eiBtNTc2LjA3IDU0My4xNDZoLTU3Ni4wN3YtOTYuMDE4aDU3Ni4wN3Y5Ni4wMTh6IG0wLTIyMy44NDVoLTU3Ni4wN3YtOTYuMDE3aDU3Ni4wN3Y5Ni4wMTd6Ii8+PC9zdmc+;" vertex="1" parent="1">
          <mxGeometry x="987.5" y="180" width="48" height="45.57" as="geometry" />
        </mxCell>
        <mxCell id="4yoZ3IH44hlJ8WYbjBaj-139" value="" style="shape=image;verticalLabelPosition=bottom;labelBackgroundColor=default;verticalAlign=top;aspect=fixed;imageAspect=0;editableCssRules=.*;image=data:image/svg+xml,PHN2ZyB4bWxuczp4bGluaz0iaHR0cDovL3d3dy53My5vcmcvMTk5OS94bGluayIgeG1sbnM9Imh0dHA6Ly93d3cudzMub3JnLzIwMDAvc3ZnIiBoZWlnaHQ9IjEzNS44MzMzNTg3NjQ2NDg0NCIgd2lkdGg9IjEzOC44ODY2NDI0NTYwNTQ3IiB2ZXJzaW9uPSIxLjEiIHZpZXdCb3g9IjE3Ni4zNjY5NDMzNTkzNzUgMTUzLjU5OTk5MDg0NDcyNjU2IDcxMS4wOTk2MDkzNzUgNjk1LjQ2Njc5Njg3NSIgY2xhc3M9Imljb24iPjxwYXRoIGZpbGw9IiM4MjUyOWQiIGQ9Ik0yOTguNjY2NjY3IDQwNS4zMzMzMzNjLTQuMjY2NjY3IDAtOC41MzMzMzMgMC04LjUzMzMzNC00LjI2NjY2Ni00LjI2NjY2NyAwLTQuMjY2NjY3LTQuMjY2NjY3LTQuMjY2NjY2LTguNTMzMzM0LTQuMjY2NjY3LTEyLjgtNC4yNjY2NjctMjUuNi04LjUzMzMzNC0zNC4xMzMzMzMtNC4yNjY2NjctOC41MzMzMzMtNC4yNjY2NjctMTcuMDY2NjY3LTguNTMzMzMzLTIxLjMzMzMzMy00LjI2NjY2Ny04LjUzMzMzMy04LjUzMzMzMy0xMi44LTEyLjgtMTcuMDY2NjY3LTguNTMzMzMzLTQuMjY2NjY3LTE3LjA2NjY2Ny00LjI2NjY2Ny0yNS42LTguNTMzMzMzLTguNTMzMzMzIDAtMjEuMzMzMzMzLTQuMjY2NjY3LTM0LjEzMzMzMy00LjI2NjY2Ny00LjI2NjY2NyAwLTguNTMzMzMzLTQuMjY2NjY3LTguNTMzMzM0LTQuMjY2NjY3IDAtNC4yNjY2NjctNC4yNjY2NjctOC41MzMzMzMtNC4yNjY2NjYtMTIuOCAwLTQuMjY2NjY3IDAtOC41MzMzMzMgNC4yNjY2NjYtOC41MzMzMzMgNC4yNjY2NjctNC4yNjY2NjcgNC4yNjY2NjctNC4yNjY2NjcgOC41MzMzMzQtNC4yNjY2NjcgMTIuOCAwIDIxLjMzMzMzMy00LjI2NjY2NyAzNC4xMzMzMzMtNC4yNjY2NjYgOC41MzMzMzMgMCAxNy4wNjY2NjctNC4yNjY2NjcgMjEuMzMzMzMzLTguNTMzMzM0IDguNTMzMzMzLTQuMjY2NjY3IDEyLjgtOC41MzMzMzMgMTcuMDY2NjY3LTE3LjA2NjY2NiA0LjI2NjY2Ny04LjUzMzMzMyA4LjUzMzMzMy0xNy4wNjY2NjcgOC41MzMzMzMtMjUuNiA0LjI2NjY2Ny04LjUzMzMzMyA0LjI2NjY2Ny0yMS4zMzMzMzMgOC41MzMzMzQtMzQuMTMzMzM0IDAtNC4yNjY2NjcgMC04LjUzMzMzMyA0LjI2NjY2Ni04LjUzMzMzM0gyOTguNjY2NjY3YzQuMjY2NjY3IDAgOC41MzMzMzMgMCA4LjUzMzMzMyA0LjI2NjY2NyA0LjI2NjY2NyA0LjI2NjY2NyA0LjI2NjY2NyA0LjI2NjY2NyA0LjI2NjY2NyA4LjUzMzMzMyA0LjI2NjY2NyAxMi44IDQuMjY2NjY3IDI1LjYgOC41MzMzMzMgMzQuMTMzMzMzIDAgOC41MzMzMzMgNC4yNjY2NjcgMTcuMDY2NjY3IDguNTMzMzMzIDIxLjMzMzMzNCA0LjI2NjY2NyA4LjUzMzMzMyA4LjUzMzMzMyAxMi44IDE3LjA2NjY2NyAxNy4wNjY2NjYgOC41MzMzMzMgNC4yNjY2NjcgMTIuOCA4LjUzMzMzMyAyMS4zMzMzMzMgOC41MzMzMzQgMTIuOCA0LjI2NjY2NyAyMS4zMzMzMzMgNC4yNjY2NjcgMzQuMTMzMzM0IDQuMjY2NjY2IDQuMjY2NjY3IDAgOC41MzMzMzMgNC4yNjY2NjcgOC41MzMzMzMgNC4yNjY2NjcgNC4yNjY2NjcgNC4yNjY2NjcgNC4yNjY2NjcgNC4yNjY2NjcgNC4yNjY2NjcgOC41MzMzMzMgMCA4LjUzMzMzMy00LjI2NjY2NyAxMi44LTEyLjggMTIuOC0xMi44IDAtMjEuMzMzMzMzIDQuMjY2NjY3LTM0LjEzMzMzNCA0LjI2NjY2Ny04LjUzMzMzMyAwLTE3LjA2NjY2NyA0LjI2NjY2Ny0yMS4zMzMzMzMgOC41MzMzMzMtOC41MzMzMzMgOC41MzMzMzMtMTIuOCAxMi44LTE3LjA2NjY2NyAyMS4zMzMzMzQtNC4yNjY2NjcgNC4yNjY2NjctNC4yNjY2NjcgMTIuOC04LjUzMzMzMyAyMS4zMzMzMzNzLTQuMjY2NjY3IDIxLjMzMzMzMy04LjUzMzMzMyAzNC4xMzMzMzNjMCA0LjI2NjY2Ny00LjI2NjY2NyA4LjUzMzMzMy00LjI2NjY2NyA4LjUzMzMzNCAwIDQuMjY2NjY3LTQuMjY2NjY3IDQuMjY2NjY3LTguNTMzMzMzIDQuMjY2NjY2eiBtNDMwLjkzMzMzMyA0MzkuNDY2NjY3YzQuMjY2NjY3IDQuMjY2NjY3IDguNTMzMzMzIDQuMjY2NjY3IDEyLjggNC4yNjY2NjcgNC4yNjY2NjcgMCA4LjUzMzMzMyAwIDEyLjgtNC4yNjY2NjcgNC4yNjY2NjctNC4yNjY2NjcgNC4yNjY2NjctOC41MzMzMzMgNC4yNjY2NjctMTIuOCA0LjI2NjY2Ny0xNy4wNjY2NjcgNC4yNjY2NjctMjkuODY2NjY3IDguNTMzMzMzLTQyLjY2NjY2NyA0LjI2NjY2Ny04LjUzMzMzMyA0LjI2NjY2Ny0yMS4zMzMzMzMgMTIuOC0yOS44NjY2NjYgNC4yNjY2NjctOC41MzMzMzMgOC41MzMzMzMtMTIuOCAxNy4wNjY2NjctMTcuMDY2NjY3IDguNTMzMzMzLTQuMjY2NjY3IDE3LjA2NjY2Ny04LjUzMzMzMyAyOS44NjY2NjYtOC41MzMzMzMgMTIuOC00LjI2NjY2NyAyNS42LTQuMjY2NjY3IDQyLjY2NjY2Ny04LjUzMzMzNCA4LjUzMzMzMyAwIDE3LjA2NjY2Ny04LjUzMzMzMyAxNy4wNjY2NjctMTcuMDY2NjY2IDAtNC4yNjY2NjcgMC04LjUzMzMzMy00LjI2NjY2Ny0xMi44LTQuMjY2NjY3LTQuMjY2NjY3LTguNTMzMzMzLTQuMjY2NjY3LTEyLjgtNC4yNjY2NjctMTcuMDY2NjY3LTQuMjY2NjY3LTI5Ljg2NjY2Ny00LjI2NjY2Ny00Mi42NjY2NjctOC41MzMzMzMtMTIuOC00LjI2NjY2Ny0yMS4zMzMzMzMtNC4yNjY2NjctMjUuNi04LjUzMzMzNC04LjUzMzMzMy00LjI2NjY2Ny0xMi44LTguNTMzMzMzLTE3LjA2NjY2Ni0xNy4wNjY2NjYtNC4yNjY2NjctOC41MzMzMzMtOC41MzMzMzMtMTcuMDY2NjY3LTEyLjgtMjkuODY2NjY3LTQuMjY2NjY3LTEyLjgtNC4yNjY2NjctMjUuNi04LjUzMzMzNC00Mi42NjY2NjcgMC00LjI2NjY2Ny00LjI2NjY2Ny04LjUzMzMzMy00LjI2NjY2Ni0xMi44LTQuMjY2NjY3LTQuMjY2NjY3LTguNTMzMzMzLTQuMjY2NjY3LTEyLjgtNC4yNjY2NjYtNC4yNjY2NjcgMC04LjUzMzMzMyAwLTEyLjggNC4yNjY2NjYtOC41MzMzMzMgNC4yNjY2NjctOC41MzMzMzMgOC41MzMzMzMtOC41MzMzMzQgMTIuOC00LjI2NjY2NyAxNy4wNjY2NjctNC4yNjY2NjcgMjkuODY2NjY3LTguNTMzMzMzIDQyLjY2NjY2Ny00LjI2NjY2NyAxMi44LTguNTMzMzMzIDIxLjMzMzMzMy0xMi44IDI5Ljg2NjY2Ny00LjI2NjY2NyA4LjUzMzMzMy04LjUzMzMzMyAxMi44LTE3LjA2NjY2NyAxNy4wNjY2NjYtOC41MzMzMzMgNC4yNjY2NjctMTcuMDY2NjY3IDguNTMzMzMzLTI5Ljg2NjY2NiA4LjUzMzMzNC0xMi44IDQuMjY2NjY3LTI1LjYgNC4yNjY2NjctNDIuNjY2NjY3IDguNTMzMzMzLTQuMjY2NjY3IDAtOC41MzMzMzMgNC4yNjY2NjctMTIuOCA0LjI2NjY2Ny00LjI2NjY2NyA0LjI2NjY2Ny00LjI2NjY2NyA4LjUzMzMzMy00LjI2NjY2NyAxMi44IDAgNC4yNjY2NjcgMCA4LjUzMzMzMyA0LjI2NjY2NyAxMi44IDQuMjY2NjY3IDQuMjY2NjY3IDguNTMzMzMzIDQuMjY2NjY3IDEyLjggNC4yNjY2NjYgMTcuMDY2NjY3IDQuMjY2NjY3IDI5Ljg2NjY2NyA0LjI2NjY2NyA0Mi42NjY2NjcgOC41MzMzMzQgOC41MzMzMzMgMCAxNy4wNjY2NjcgNC4yNjY2NjcgMjUuNiA4LjUzMzMzMyA4LjUzMzMzMyA0LjI2NjY2NyAxMi44IDguNTMzMzMzIDE3LjA2NjY2NiAxNy4wNjY2NjcgNC4yNjY2NjcgOC41MzMzMzMgOC41MzMzMzMgMTcuMDY2NjY3IDEyLjggMjkuODY2NjY2IDQuMjY2NjY3IDEyLjggNC4yNjY2NjcgMjUuNiA4LjUzMzMzNCA0Mi42NjY2NjcgNC4yNjY2NjcgNC4yNjY2NjcgNC4yNjY2NjcgOC41MzMzMzMgOC41MzMzMzMgMTIuOHoiLz48cGF0aCBmaWxsPSIjODI1MjlkIiBkPSJNODEwLjY2NjY2NyAyNDMuMmwtNjQtNjguMjY2NjY3Yy0xMi44LTEyLjgtMjkuODY2NjY3LTIxLjMzMzMzMy00Ni45MzMzMzQtMjEuMzMzMzMzLTE3LjA2NjY2NyAwLTI5Ljg2NjY2NyA4LjUzMzMzMy00Ni45MzMzMzMgMjEuMzMzMzMzTDI1NiA1NzEuNzMzMzMzYy00LjI2NjY2NyA0LjI2NjY2Ny0yNS42IDQyLjY2NjY2Ny0yNS42IDQyLjY2NjY2Ny0yNS42IDU1LjQ2NjY2Ny03Ni44IDE1Ny44NjY2NjctNDIuNjY2NjY3IDE4My40NjY2NjcgNC4yNjY2NjcgNC4yNjY2NjcgMTIuOCA0LjI2NjY2NyAyMS4zMzMzMzQgNC4yNjY2NjYgNTkuNzMzMzMzIDAgMTk2LjI2NjY2Ny02NCAyMDAuNTMzMzMzLTY0IDQuMjY2NjY3IDAgNDAxLjA2NjY2Ny00MDEuMDY2NjY3IDQwMS4wNjY2NjctNDAxLjA2NjY2NiAxMi44LTEyLjggMjEuMzMzMzMzLTI5Ljg2NjY2NyAyMS4zMzMzMzMtNDYuOTMzMzM0IDAtMTcuMDY2NjY3LTguNTMzMzMzLTI5Ljg2NjY2Ny0yMS4zMzMzMzMtNDYuOTMzMzMzek0zNzEuMiA2ODYuOTMzMzMzYy0yOS44NjY2NjcgMTIuOC04MS4wNjY2NjcgMzQuMTMzMzMzLTExOS40NjY2NjcgNDYuOTMzMzM0IDguNTMzMzMzLTIxLjMzMzMzMyAyMS4zMzMzMzMtNTEuMiAzOC40LTg5LjYgNC4yNjY2NjctMTIuOCAxMi44LTI1LjYgMTcuMDY2NjY3LTI5Ljg2NjY2N2wyOTQuNC0yOTguNjY2NjY3TDY2OS44NjY2NjcgMzg0Yy0xMjggMTMyLjI2NjY2Ny0yNjQuNTMzMzMzIDI2OC44LTI5OC42NjY2NjcgMzAyLjkzMzMzM3ogbTM5Mi41MzMzMzMtMzkyLjUzMzMzM0w3MTYuOCAzNDEuMzMzMzMzbC02OC4yNjY2NjctNjguMjY2NjY2IDQ2LjkzMzMzNC01MS4yIDY4LjI2NjY2NiA3Mi41MzMzMzNjMC00LjI2NjY2NyAwLTQuMjY2NjY3IDAgMCAwLTQuMjY2NjY3IDAtNC4yNjY2NjcgMCAweiIvPjwvc3ZnPg==;" vertex="1" parent="1">
          <mxGeometry x="987.5" y="242.22000000000003" width="49" height="47.95" as="geometry" />
        </mxCell>
        <mxCell id="4yoZ3IH44hlJ8WYbjBaj-140" value="" style="shape=image;verticalLabelPosition=bottom;labelBackgroundColor=default;verticalAlign=top;aspect=fixed;imageAspect=0;editableCssRules=.*;image=data:image/svg+xml,PHN2ZyB4bWxuczp4bGluaz0iaHR0cDovL3d3dy53My5vcmcvMTk5OS94bGluayIgeG1sbnM9Imh0dHA6Ly93d3cudzMub3JnLzIwMDAvc3ZnIiBoZWlnaHQ9IjE3Mi41MjYzMzU3MTYyNDc1NiIgd2lkdGg9IjE3NS44ODg5MTk4MzAzMjIyNyIgdmVyc2lvbj0iMS4xIiB2aWV3Qm94PSI2MS43MDM3MDQ4MzM5ODQzNzUgNzUuMDk4MzczNDEzMDg1OTQgOTAwLjU1MTI2OTUzMTI1IDg4My4zMzQ4Mzg4NjcxODc1IiBjbGFzcz0iaWNvbiI+PHBhdGggZmlsbD0iIzhjYmIxOSIgZD0iTTUxMiA4NDIuOTcxNDI5bC0xOTYuNDk4Mjg2IDEwNi42MDU3MTRBNzMuMTQyODU3IDczLjE0Mjg1NyAwIDAgMSAyMDguNDU3MTQzIDg3My4zMjU3MTRsMzguMTA3NDI4LTIyOS40NDkxNDMtMTYzLjU4NC0xNjQuNjA4QTczLjE0Mjg1NyA3My4xNDI4NTcgMCAwIDEgMTIzLjk3NzE0MyAzNTUuMzY0NTcxbDIyMy45MjY4NTctMzMuNjA5MTQyIDk4LjA4NDU3MS0yMDUuMDkyNTcyYTczLjE0Mjg1NyA3My4xNDI4NTcgMCAwIDEgMTMxLjk0OTcxNSAwbDk4LjA4NDU3MSAyMDUuMDkyNTcyIDIyMy45MjY4NTcgMzMuNjA5MTQyYTczLjE0Mjg1NyA3My4xNDI4NTcgMCAwIDEgNDEuMDMzMTQzIDEyMy45MDRsLTE2My41ODQgMTY0LjU3MTQyOUw4MTUuNTQyODU3IDg3My4zMjU3MTRhNzMuMTQyODU3IDczLjE0Mjg1NyAwIDAgMS0xMDcuMDQ0NTcxIDc2LjI1MTQyOUw1MTIgODQyLjk3MTQyOXoiLz48L3N2Zz4=;" vertex="1" parent="1">
          <mxGeometry x="985.75" y="304.5300000000001" width="56" height="55.05" as="geometry" />
        </mxCell>
        <mxCell id="4yoZ3IH44hlJ8WYbjBaj-141" value="" style="shape=image;verticalLabelPosition=bottom;labelBackgroundColor=default;verticalAlign=top;aspect=fixed;imageAspect=0;editableCssRules=.*;image=data:image/svg+xml,PHN2ZyB4bWxuczp4bGluaz0iaHR0cDovL3d3dy53My5vcmcvMTk5OS94bGluayIgeG1sbnM9Imh0dHA6Ly93d3cudzMub3JnLzIwMDAvc3ZnIiBoZWlnaHQ9IjE1OS4xMzAwODQ1MTQ2MTc5MiIgd2lkdGg9IjE0My4yNjk5MjAzNDkxMjExIiB2ZXJzaW9uPSIxLjEiIHZpZXdCb3g9IjE0NS4yMjkwMDM5MDYyNSAxMDQuNjI2OTY4MzgzNzg5MDYgNzMzLjU0MTk5MjE4NzUgODE0Ljc0NjAzMjcxNDg0MzgiIGNsYXNzPSJpY29uIj48cGF0aCBmaWxsPSIjNzA3MDcwIiBkPSJNNTExLjk3NSA5MTkuMzczYy0yMDIuMjQyIDAtMzY2Ljc0Ni0xMjQuOTgtMzY2Ljc0Ni0yNzguNTc4IDAtMTA0Ljc1NyA4MS40MDYtMjU0LjUxNSAyMDYuMDI2LTMzMC42MDEtMTkuMjUtMjEuMTQ1LTI5LjUzOS00NS44MjQtMjkuNTM5LTcyLjAzNSAwLTc0Ljg1NiA4NC4xMjEtMTMzLjUzMiAxOTEuNDg1LTEzMy41MzIgMTA3LjQxOCAwIDE5MS40ODggNTguNjc2IDE5MS40ODggMTMzLjUzMiAwIDI2LjYyMS0xMC41OTggNTEuNjA5LTMwLjUxNiA3Mi45NTcgMTIzLjc1NCA3Ni4zNCAyMDQuNTk4IDIyNS41MzkgMjA0LjU5OCAzMjkuNjc5IDAgMTUzLjU5OC0xNjQuNTU4IDI3OC41NzgtMzY2Ljc5NiAyNzguNTc4eiBtMS4xNzUtNzYzLjU5N2MtNzYuMDMxIDAtMTQwLjI4NSAzNy42ODMtMTQwLjI4NSA4Mi4zMjggMCAyNi45ODQgMjMuNSA0Ni4xMzMgMzcuNTI3IDU1LjE0NGEyNS43MTQgMjUuNzE0IDAgMCAxIDExLjYyOSAyMy4yNDcgMjUuNzA0IDI1LjcwNCAwIDAgMS0xNC41OTkgMjEuNTAzQzI4My4xMSAzOTYuMzE1IDE5Ni40MjcgNTQ0LjM4NSAxOTYuNDI3IDY0MC43OTVjMCAxMjUuMzg3IDE0MS41NyAyMjcuMzc5IDMxNS41NDcgMjI3LjM3OXMzMTUuNTk4LTEwMS45OTIgMzE1LjU5OC0yMjcuMzc5YzAtOTUuODQ3LTg2LjIyMy0yNDMuNTU4LTIwOS44NzEtMzAyLjE4M2EyNS42NTIgMjUuNjUyIDAgMCAxLTIuNzY2LTQ0LjgwMWMxNC4zOTEtOS4wNjMgMzguNTA0LTI4LjQxNCAzOC41MDQtNTUuNjUyIDAuMDUxLTQ0LjY0OS02NC4yMDMtODIuMzgzLTE0MC4yODktODIuMzgzeiBtMCAwIi8+PHBhdGggZmlsbD0iIzcwNzA3MCIgZD0iTTUyMC4yNjggNTcwLjI5MWEyNS43MDYgMjUuNzA2IDAgMCAxLTE4LjEyNS03LjQ3NmwtODMuOTctODMuOTY1Yy05LjY5OC0xMC4wNDctOS41NjItMjYuMDEyIDAuMzEzLTM1Ljg4N3MyNS44NDQtMTAuMDE1IDM1Ljg4Ny0wLjMxMmw4My45NjkgODMuOTY5YTI1LjYwMSAyNS42MDEgMCAwIDEtMTguMDc0IDQzLjY3MXogbTAgMCIvPjxwYXRoIGZpbGw9IiM3MDcwNzAiIGQ9Ik01MjAuMjY4IDU3MC4yOTFhMjUuNTk3IDI1LjU5NyAwIDAgMS0yMy42MzgtMTUuNzg5IDI1LjU4NSAyNS41ODUgMCAwIDEgNS41MTMtMjcuODgybDgzLjk2OS04My45NjljMTAuMDQ3LTkuNzAzIDI2LjAxMi05LjU2MyAzNS44ODcgMC4zMTJzMTAuMDE2IDI1Ljg0IDAuMzEzIDM1Ljg4N2wtODMuOTY5IDgzLjk2NWEyNS41MDIgMjUuNTAyIDAgMCAxLTE4LjA3NSA3LjQ3NnogbTAgMCIvPjxwYXRoIGZpbGw9IiM3MDcwNzAiIGQ9Ik02MDYuMDggNTgzLjU1M0g0MTguMjI5Yy0xNC4xNDIgMC0yNS42MDMtMTEuNDYxLTI1LjYwMy0yNS42MDEgMC0xNC4xMzcgMTEuNDYxLTI1LjU5OCAyNS42MDMtMjUuNTk4SDYwNi4wOGMxNC4xMzcgMCAyNS42MDIgMTEuNDYxIDI1LjYwMiAyNS41OTggMCAxNC4xNC0xMS40NjUgMjUuNjAxLTI1LjYwMiAyNS42MDF6IG0wIDkyLjI2Mkg0MTguMjI5Yy0xNC4xNDIgMC0yNS42MDMtMTEuNDYxLTI1LjYwMy0yNS42MDMgMC0xNC4xMzYgMTEuNDYxLTI1LjU5NyAyNS42MDMtMjUuNTk3SDYwNi4wOGMxNC4xMzcgMCAyNS42MDIgMTEuNDYxIDI1LjYwMiAyNS41OTcgMCAxNC4xNDItMTEuNDY1IDI1LjYwMy0yNS42MDIgMjUuNjAzeiBtMCAwIi8+PHBhdGggZmlsbD0iIzcwNzA3MCIgZD0iTTUyMC4yNjggNzcyLjI3NmMtMTQuMTM4IDAtMjUuNTk5LTExLjQ2MS0yNS41OTktMjUuNjAzVjU3My43NzJjMC0xNC4xMzggMTEuNDYxLTI1LjU5OSAyNS41OTktMjUuNTk5IDE0LjE0MSAwIDI1LjYwMiAxMS40NjEgMjUuNjAyIDI1LjU5OXYxNzIuOTAxYy0wLjAwMSAxNC4xNDItMTEuNDYyIDI1LjYwMy0yNS42MDIgMjUuNjAzeiBtMCAwIi8+PC9zdmc+;" vertex="1" parent="1">
          <mxGeometry x="987.25" y="379.7600000000001" width="53" height="58.93" as="geometry" />
        </mxCell>
        <mxCell id="4yoZ3IH44hlJ8WYbjBaj-142" value="" style="shape=image;verticalLabelPosition=bottom;labelBackgroundColor=default;verticalAlign=top;aspect=fixed;imageAspect=0;editableCssRules=.*;image=data:image/svg+xml,PHN2ZyB4bWxuczp4bGluaz0iaHR0cDovL3d3dy53My5vcmcvMTk5OS94bGluayIgeG1sbnM9Imh0dHA6Ly93d3cudzMub3JnLzIwMDAvc3ZnIiBoZWlnaHQ9IjE4MS43MDY3Mzg0NzE5ODQ4NiIgd2lkdGg9IjE1MCIgdmVyc2lvbj0iMS4xIiB2aWV3Qm94PSIxMjcuOTk5OTg0NzQxMjEwOTQgMjEuOTgxNDUyOTQxODk0NTMgNzY4IDkzMC4zMzg1MDA5NzY1NjI1IiBjbGFzcz0iaWNvbiI+PHBhdGggZmlsbD0iIzg3OEQ5MSIgZD0iTTEyOCA3OTguNzJtNzYuOCAwbDYxNC40IDBxNzYuOCAwIDc2LjggNzYuOGwwIDBxMCA3Ni44LTc2LjggNzYuOGwtNjE0LjQgMHEtNzYuOCAwLTc2LjgtNzYuOGwwIDBxMC03Ni44IDc2LjgtNzYuOFoiLz48cGF0aCBmaWxsPSIjODc4RDkxIiBkPSJNNzY2LjE5Nzc2IDE4Ny42NjMzNmMxOS45OTM2IDE5Ljk5MzYgMTkuOTkzNiA1Mi40MTM0NCAwIDcyLjQwNzA0bC0xMzQuMzA3ODQgMTM0LjMwMjcyIDIxOS45MDQgMjE5LjkwOTEyYzMwLjgwNzA0IDMwLjgwMTkyIDMwLjgwNzA0IDgwLjc0MjQgMCAxMTEuNTQ5NDQtMzAuODAxOTIgMzAuODAxOTItODAuNzQyNCAzMC44MDE5Mi0xMTEuNTQ0MzIgMGwtMjE5LjkwNC0yMTkuOTA0LTEyNy45MjgzMiAxMjcuOTIzMmMtMTkuOTkzNiAxOS45OTg3Mi01Mi40MTM0NCAxOS45OTg3Mi03Mi40MDcwNCAwbC0xNTAuNjgxNi0xNTAuNjgxNmMtMTkuOTk4NzItMTkuOTk4NzItMTkuOTk4NzItNTIuNDE4NTYgMC03Mi40MTIxNmwzNzMuNzc1MzYtMzczLjc4MDQ4YzE5Ljk5MzYtMTkuOTkzNiA1Mi40MTM0NC0xOS45OTM2IDcyLjQwNzA0IDBsMTUwLjY4NjcyIDE1MC42ODY3MnoiLz48L3N2Zz4=;" vertex="1" parent="1">
          <mxGeometry x="992.5" y="459.19000000000005" width="42.5" height="51.57" as="geometry" />
        </mxCell>
        <mxCell id="4yoZ3IH44hlJ8WYbjBaj-144" value="" style="shape=image;verticalLabelPosition=bottom;labelBackgroundColor=default;verticalAlign=top;aspect=fixed;imageAspect=0;editableCssRules=.*;image=data:image/svg+xml,PHN2ZyB4bWxuczp4bGluaz0iaHR0cDovL3d3dy53My5vcmcvMTk5OS94bGluayIgeG1sbnM9Imh0dHA6Ly93d3cudzMub3JnLzIwMDAvc3ZnIiBoZWlnaHQ9IjIwMCIgd2lkdGg9IjMwMCIgdmVyc2lvbj0iMS4xIiB2aWV3Qm94PSItMy42Mzc5NzgzMTkyMDA3MzUzZS0xMyAwIDE1MzYgMTAyNCIgY2xhc3M9Imljb24iPjxwYXRoIGZpbGw9IiM4N2E3ZDYiIGQ9Ik01MTIgMjU2SDQwOS42VjUxLjJBNTEuMiA1MS4yIDAgMCAxIDQ2MC44IDBoMTAyNEE1MS4yIDUxLjIgMCAwIDEgMTUzNiA1MS4ydjY2NS42YTUxLjIgNTEuMiAwIDAgMS01MS4yIDUxLjJINzY4di0xMDIuNGg2NjUuNlYxMDIuNEg1MTJWMjU2ek0xMDIuNCA0MDkuNlY3NjhoNTEyVjQwOS42aC01MTJ6TTUxLjIgMzA3LjJoNjE0LjRhNTEuMiA1MS4yIDAgMCAxIDUxLjIgNTEuMnY0NjAuOGE1MS4yIDUxLjIgMCAwIDEtNTEuMiA1MS4ySDUxLjJBNTEuMiA1MS4yIDAgMCAxIDAgODE5LjJWMzU4LjRhNTEuMiA1MS4yIDAgMCAxIDUxLjItNTEuMnpNMjU2IDkyMS42aDIwNC44YTUxLjIgNTEuMiAwIDEgMSAwIDEwMi40SDI1NmE1MS4yIDUxLjIgMCAxIDEgMC0xMDIuNHogbTYxNC40LTEwMi40aDIwNC44YTUxLjIgNTEuMiAwIDEgMSAwIDEwMi40aC0yMDQuOGE1MS4yIDUxLjIgMCAxIDEgMC0xMDIuNHoiLz48L3N2Zz4=;" vertex="1" parent="1">
          <mxGeometry x="980" y="534.69" width="67.5" height="45" as="geometry" />
        </mxCell>
        <mxCell id="4yoZ3IH44hlJ8WYbjBaj-145" value="Feature Aggregation" style="text;html=1;align=center;verticalAlign=middle;whiteSpace=wrap;rounded=0;fontStyle=1;fontColor=#292929;fontSize=16;" vertex="1" parent="1">
          <mxGeometry x="1047.5" y="187.78999999999996" width="190" height="30" as="geometry" />
        </mxCell>
        <mxCell id="4yoZ3IH44hlJ8WYbjBaj-146" value="Ad&lt;span style=&quot;background-color: transparent; color: light-dark(rgb(41, 41, 41), rgb(202, 202, 202));&quot;&gt;&amp;nbsp;Generation&lt;/span&gt;" style="text;html=1;align=center;verticalAlign=middle;whiteSpace=wrap;rounded=0;fontStyle=1;fontColor=#292929;fontSize=16;" vertex="1" parent="1">
          <mxGeometry x="1055" y="255.37" width="127.5" height="30" as="geometry" />
        </mxCell>
        <mxCell id="4yoZ3IH44hlJ8WYbjBaj-147" value="Quality Evaluation" style="text;html=1;align=center;verticalAlign=middle;whiteSpace=wrap;rounded=0;fontStyle=1;fontColor=#292929;fontSize=16;" vertex="1" parent="1">
          <mxGeometry x="1054.75" y="320" width="157.5" height="30" as="geometry" />
        </mxCell>
        <mxCell id="4yoZ3IH44hlJ8WYbjBaj-148" value="Revenue Estimation" style="text;html=1;align=center;verticalAlign=middle;whiteSpace=wrap;rounded=0;fontStyle=1;fontColor=#292929;fontSize=16;" vertex="1" parent="1">
          <mxGeometry x="1062.5" y="394.23" width="160" height="30" as="geometry" />
        </mxCell>
        <mxCell id="4yoZ3IH44hlJ8WYbjBaj-149" value="Auction" style="text;html=1;align=center;verticalAlign=middle;whiteSpace=wrap;rounded=0;fontStyle=1;fontColor=#292929;fontSize=16;" vertex="1" parent="1">
          <mxGeometry x="1054.75" y="465.98" width="82.5" height="30" as="geometry" />
        </mxCell>
        <mxCell id="4yoZ3IH44hlJ8WYbjBaj-150" value="Online Display" style="text;html=1;align=center;verticalAlign=middle;whiteSpace=wrap;rounded=0;fontStyle=1;fontColor=#292929;fontSize=16;" vertex="1" parent="1">
          <mxGeometry x="1055" y="537.19" width="132.25" height="30" as="geometry" />
        </mxCell>
        <mxCell id="4yoZ3IH44hlJ8WYbjBaj-152" value="" style="shape=flexArrow;endArrow=classic;html=1;rounded=0;fillColor=light-dark(#bdd0e9, #1d293b);strokeColor=none;" edge="1" parent="1">
          <mxGeometry width="50" height="50" relative="1" as="geometry">
            <mxPoint x="877" y="379.76" as="sourcePoint" />
            <mxPoint x="944.5" y="379.76" as="targetPoint" />
            <Array as="points">
              <mxPoint x="887" y="379.76" />
            </Array>
          </mxGeometry>
        </mxCell>
        <mxCell id="4yoZ3IH44hlJ8WYbjBaj-153" value="" style="shape=flexArrow;endArrow=classic;html=1;rounded=0;fillColor=light-dark(#bdd0e9, #1d293b);strokeColor=none;" edge="1" parent="1">
          <mxGeometry width="50" height="50" relative="1" as="geometry">
            <mxPoint x="1094.13" y="216.26" as="sourcePoint" />
            <mxPoint x="1093.63" y="256.5" as="targetPoint" />
            <Array as="points">
              <mxPoint x="1093.63" y="216.26" />
            </Array>
          </mxGeometry>
        </mxCell>
        <mxCell id="4yoZ3IH44hlJ8WYbjBaj-154" value="" style="shape=flexArrow;endArrow=classic;html=1;rounded=0;fillColor=light-dark(#bdd0e9, #1d293b);strokeColor=none;" edge="1" parent="1">
          <mxGeometry width="50" height="50" relative="1" as="geometry">
            <mxPoint x="1094.1200000000001" y="285.37" as="sourcePoint" />
            <mxPoint x="1093.6200000000001" y="325.61" as="targetPoint" />
            <Array as="points">
              <mxPoint x="1093.6200000000001" y="285.37" />
            </Array>
          </mxGeometry>
        </mxCell>
        <mxCell id="4yoZ3IH44hlJ8WYbjBaj-155" value="" style="shape=flexArrow;endArrow=classic;html=1;rounded=0;fillColor=light-dark(#bdd0e9, #1d293b);strokeColor=none;" edge="1" parent="1">
          <mxGeometry width="50" height="50" relative="1" as="geometry">
            <mxPoint x="1094.13" y="353.37" as="sourcePoint" />
            <mxPoint x="1093.63" y="393.61" as="targetPoint" />
            <Array as="points">
              <mxPoint x="1093.63" y="353.37" />
            </Array>
          </mxGeometry>
        </mxCell>
        <mxCell id="4yoZ3IH44hlJ8WYbjBaj-156" value="" style="shape=flexArrow;endArrow=classic;html=1;rounded=0;fillColor=light-dark(#bdd0e9, #1d293b);strokeColor=none;" edge="1" parent="1">
          <mxGeometry width="50" height="50" relative="1" as="geometry">
            <mxPoint x="1095.0000000000002" y="426.23" as="sourcePoint" />
            <mxPoint x="1094.5000000000002" y="466.47" as="targetPoint" />
            <Array as="points">
              <mxPoint x="1094.5000000000002" y="426.23" />
            </Array>
          </mxGeometry>
        </mxCell>
        <mxCell id="4yoZ3IH44hlJ8WYbjBaj-157" value="" style="shape=flexArrow;endArrow=classic;html=1;rounded=0;fillColor=light-dark(#bdd0e9, #1d293b);strokeColor=none;" edge="1" parent="1">
          <mxGeometry width="50" height="50" relative="1" as="geometry">
            <mxPoint x="1096.0000000000002" y="500.38" as="sourcePoint" />
            <mxPoint x="1095.5000000000002" y="540.62" as="targetPoint" />
            <Array as="points">
              <mxPoint x="1095.5000000000002" y="500.38" />
            </Array>
          </mxGeometry>
        </mxCell>
        <mxCell id="4yoZ3IH44hlJ8WYbjBaj-158" value="" style="endArrow=none;dashed=1;html=1;rounded=0;dashPattern=8 8;strokeColor=#4F4F4F;" edge="1" parent="1">
          <mxGeometry width="50" height="50" relative="1" as="geometry">
            <mxPoint x="60" y="150" as="sourcePoint" />
            <mxPoint x="1350" y="146" as="targetPoint" />
          </mxGeometry>
        </mxCell>
        <mxCell id="4yoZ3IH44hlJ8WYbjBaj-161" value="System Integration" style="text;html=1;align=center;verticalAlign=middle;whiteSpace=wrap;rounded=0;fontStyle=1;fontColor=#292929;fontSize=20;" vertex="1" parent="1">
          <mxGeometry x="1002.5" y="102" width="190" height="30" as="geometry" />
        </mxCell>
        <mxCell id="4yoZ3IH44hlJ8WYbjBaj-162" value="Multi-stage Training" style="text;html=1;align=center;verticalAlign=middle;whiteSpace=wrap;rounded=0;fontStyle=1;fontColor=#292929;fontSize=20;" vertex="1" parent="1">
          <mxGeometry x="576.5" y="102" width="226" height="30" as="geometry" />
        </mxCell>
        <mxCell id="4yoZ3IH44hlJ8WYbjBaj-163" value="Data Construction" style="text;html=1;align=center;verticalAlign=middle;whiteSpace=wrap;rounded=0;fontStyle=1;fontColor=#292929;fontSize=22;" vertex="1" parent="1">
          <mxGeometry x="137.5" y="102" width="205" height="30" as="geometry" />
        </mxCell>
      </root>
    </mxGraphModel>
  </diagram>
</mxfile>
